G75*
%MOIN*%
%OFA0B0*%
%FSLAX24Y24*%
%IPPOS*%
%LPD*%
%AMOC8*
5,1,8,0,0,1.08239X$1,22.5*
%
%ADD10C,0.0000*%
%ADD11OC8,0.0700*%
%ADD12C,0.0100*%
%ADD13C,0.0260*%
%ADD14C,0.0120*%
D10*
X000330Y000150D02*
X000330Y004145D01*
X000643Y004145D01*
X000680Y004147D01*
X000717Y004152D01*
X000753Y004161D01*
X000788Y004174D01*
X000821Y004190D01*
X000853Y004209D01*
X000883Y004231D01*
X000910Y004256D01*
X000935Y004283D01*
X000957Y004313D01*
X000976Y004345D01*
X000992Y004378D01*
X001005Y004413D01*
X001014Y004449D01*
X001019Y004486D01*
X001021Y004523D01*
X001019Y004560D01*
X001014Y004597D01*
X001005Y004633D01*
X000992Y004668D01*
X000976Y004701D01*
X000957Y004733D01*
X000935Y004763D01*
X000910Y004790D01*
X000883Y004815D01*
X000853Y004837D01*
X000821Y004856D01*
X000788Y004872D01*
X000753Y004885D01*
X000717Y004894D01*
X000680Y004899D01*
X000643Y004901D01*
X000643Y004900D02*
X000330Y004900D01*
X000330Y008895D01*
X007322Y008895D01*
X007322Y004900D01*
X007018Y004900D01*
X007018Y004901D02*
X006981Y004899D01*
X006944Y004894D01*
X006908Y004885D01*
X006873Y004872D01*
X006840Y004856D01*
X006808Y004837D01*
X006778Y004815D01*
X006751Y004790D01*
X006726Y004763D01*
X006704Y004733D01*
X006685Y004701D01*
X006669Y004668D01*
X006656Y004633D01*
X006647Y004597D01*
X006642Y004560D01*
X006640Y004523D01*
X006642Y004486D01*
X006647Y004449D01*
X006656Y004413D01*
X006669Y004378D01*
X006685Y004345D01*
X006704Y004313D01*
X006726Y004283D01*
X006751Y004256D01*
X006778Y004231D01*
X006808Y004209D01*
X006840Y004190D01*
X006873Y004174D01*
X006908Y004161D01*
X006944Y004152D01*
X006981Y004147D01*
X007018Y004145D01*
X007322Y004145D01*
X007322Y000150D01*
X000330Y000150D01*
X002018Y004145D02*
X005643Y004145D01*
X005680Y004147D01*
X005717Y004152D01*
X005753Y004161D01*
X005788Y004174D01*
X005821Y004190D01*
X005853Y004209D01*
X005883Y004231D01*
X005910Y004256D01*
X005935Y004283D01*
X005957Y004313D01*
X005976Y004345D01*
X005992Y004378D01*
X006005Y004413D01*
X006014Y004449D01*
X006019Y004486D01*
X006021Y004523D01*
X006019Y004560D01*
X006014Y004597D01*
X006005Y004633D01*
X005992Y004668D01*
X005976Y004701D01*
X005957Y004733D01*
X005935Y004763D01*
X005910Y004790D01*
X005883Y004815D01*
X005853Y004837D01*
X005821Y004856D01*
X005788Y004872D01*
X005753Y004885D01*
X005717Y004894D01*
X005680Y004899D01*
X005643Y004901D01*
X005643Y004900D02*
X002018Y004900D01*
X002018Y004901D02*
X001981Y004899D01*
X001944Y004894D01*
X001908Y004885D01*
X001873Y004872D01*
X001840Y004856D01*
X001808Y004837D01*
X001778Y004815D01*
X001751Y004790D01*
X001726Y004763D01*
X001704Y004733D01*
X001685Y004701D01*
X001669Y004668D01*
X001656Y004633D01*
X001647Y004597D01*
X001642Y004560D01*
X001640Y004523D01*
X001642Y004486D01*
X001647Y004449D01*
X001656Y004413D01*
X001669Y004378D01*
X001685Y004345D01*
X001704Y004313D01*
X001726Y004283D01*
X001751Y004256D01*
X001778Y004231D01*
X001808Y004209D01*
X001840Y004190D01*
X001873Y004174D01*
X001908Y004161D01*
X001944Y004152D01*
X001981Y004147D01*
X002018Y004145D01*
X001439Y004275D02*
X001441Y004293D01*
X001447Y004309D01*
X001456Y004324D01*
X001469Y004337D01*
X001484Y004346D01*
X001500Y004352D01*
X001518Y004354D01*
X001536Y004352D01*
X001552Y004346D01*
X001567Y004337D01*
X001580Y004324D01*
X001589Y004309D01*
X001595Y004293D01*
X001597Y004275D01*
X001595Y004257D01*
X001589Y004241D01*
X001580Y004226D01*
X001567Y004213D01*
X001552Y004204D01*
X001536Y004198D01*
X001518Y004196D01*
X001500Y004198D01*
X001484Y004204D01*
X001469Y004213D01*
X001456Y004226D01*
X001447Y004241D01*
X001441Y004257D01*
X001439Y004275D01*
X001064Y004275D02*
X001066Y004293D01*
X001072Y004309D01*
X001081Y004324D01*
X001094Y004337D01*
X001109Y004346D01*
X001125Y004352D01*
X001143Y004354D01*
X001161Y004352D01*
X001177Y004346D01*
X001192Y004337D01*
X001205Y004324D01*
X001214Y004309D01*
X001220Y004293D01*
X001222Y004275D01*
X001220Y004257D01*
X001214Y004241D01*
X001205Y004226D01*
X001192Y004213D01*
X001177Y004204D01*
X001161Y004198D01*
X001143Y004196D01*
X001125Y004198D01*
X001109Y004204D01*
X001094Y004213D01*
X001081Y004226D01*
X001072Y004241D01*
X001066Y004257D01*
X001064Y004275D01*
X001064Y004775D02*
X001066Y004793D01*
X001072Y004809D01*
X001081Y004824D01*
X001094Y004837D01*
X001109Y004846D01*
X001125Y004852D01*
X001143Y004854D01*
X001161Y004852D01*
X001177Y004846D01*
X001192Y004837D01*
X001205Y004824D01*
X001214Y004809D01*
X001220Y004793D01*
X001222Y004775D01*
X001220Y004757D01*
X001214Y004741D01*
X001205Y004726D01*
X001192Y004713D01*
X001177Y004704D01*
X001161Y004698D01*
X001143Y004696D01*
X001125Y004698D01*
X001109Y004704D01*
X001094Y004713D01*
X001081Y004726D01*
X001072Y004741D01*
X001066Y004757D01*
X001064Y004775D01*
X001439Y004775D02*
X001441Y004793D01*
X001447Y004809D01*
X001456Y004824D01*
X001469Y004837D01*
X001484Y004846D01*
X001500Y004852D01*
X001518Y004854D01*
X001536Y004852D01*
X001552Y004846D01*
X001567Y004837D01*
X001580Y004824D01*
X001589Y004809D01*
X001595Y004793D01*
X001597Y004775D01*
X001595Y004757D01*
X001589Y004741D01*
X001580Y004726D01*
X001567Y004713D01*
X001552Y004704D01*
X001536Y004698D01*
X001518Y004696D01*
X001500Y004698D01*
X001484Y004704D01*
X001469Y004713D01*
X001456Y004726D01*
X001447Y004741D01*
X001441Y004757D01*
X001439Y004775D01*
X006064Y004775D02*
X006066Y004793D01*
X006072Y004809D01*
X006081Y004824D01*
X006094Y004837D01*
X006109Y004846D01*
X006125Y004852D01*
X006143Y004854D01*
X006161Y004852D01*
X006177Y004846D01*
X006192Y004837D01*
X006205Y004824D01*
X006214Y004809D01*
X006220Y004793D01*
X006222Y004775D01*
X006220Y004757D01*
X006214Y004741D01*
X006205Y004726D01*
X006192Y004713D01*
X006177Y004704D01*
X006161Y004698D01*
X006143Y004696D01*
X006125Y004698D01*
X006109Y004704D01*
X006094Y004713D01*
X006081Y004726D01*
X006072Y004741D01*
X006066Y004757D01*
X006064Y004775D01*
X006064Y004275D02*
X006066Y004293D01*
X006072Y004309D01*
X006081Y004324D01*
X006094Y004337D01*
X006109Y004346D01*
X006125Y004352D01*
X006143Y004354D01*
X006161Y004352D01*
X006177Y004346D01*
X006192Y004337D01*
X006205Y004324D01*
X006214Y004309D01*
X006220Y004293D01*
X006222Y004275D01*
X006220Y004257D01*
X006214Y004241D01*
X006205Y004226D01*
X006192Y004213D01*
X006177Y004204D01*
X006161Y004198D01*
X006143Y004196D01*
X006125Y004198D01*
X006109Y004204D01*
X006094Y004213D01*
X006081Y004226D01*
X006072Y004241D01*
X006066Y004257D01*
X006064Y004275D01*
X006439Y004275D02*
X006441Y004293D01*
X006447Y004309D01*
X006456Y004324D01*
X006469Y004337D01*
X006484Y004346D01*
X006500Y004352D01*
X006518Y004354D01*
X006536Y004352D01*
X006552Y004346D01*
X006567Y004337D01*
X006580Y004324D01*
X006589Y004309D01*
X006595Y004293D01*
X006597Y004275D01*
X006595Y004257D01*
X006589Y004241D01*
X006580Y004226D01*
X006567Y004213D01*
X006552Y004204D01*
X006536Y004198D01*
X006518Y004196D01*
X006500Y004198D01*
X006484Y004204D01*
X006469Y004213D01*
X006456Y004226D01*
X006447Y004241D01*
X006441Y004257D01*
X006439Y004275D01*
X006439Y004775D02*
X006441Y004793D01*
X006447Y004809D01*
X006456Y004824D01*
X006469Y004837D01*
X006484Y004846D01*
X006500Y004852D01*
X006518Y004854D01*
X006536Y004852D01*
X006552Y004846D01*
X006567Y004837D01*
X006580Y004824D01*
X006589Y004809D01*
X006595Y004793D01*
X006597Y004775D01*
X006595Y004757D01*
X006589Y004741D01*
X006580Y004726D01*
X006567Y004713D01*
X006552Y004704D01*
X006536Y004698D01*
X006518Y004696D01*
X006500Y004698D01*
X006484Y004704D01*
X006469Y004713D01*
X006456Y004726D01*
X006447Y004741D01*
X006441Y004757D01*
X006439Y004775D01*
D11*
X006830Y005400D03*
X005830Y005400D03*
X004830Y005400D03*
X003830Y005400D03*
X002830Y005400D03*
X001830Y005400D03*
X000830Y005400D03*
X000830Y003650D03*
X001830Y003650D03*
X002830Y003650D03*
X003830Y003650D03*
X004830Y003650D03*
X005830Y003650D03*
X006830Y003650D03*
X006830Y000650D03*
X005830Y000650D03*
X004830Y000650D03*
X003830Y000650D03*
X002830Y000650D03*
X001830Y000650D03*
X000830Y000650D03*
X000830Y008400D03*
X001830Y008400D03*
X002830Y008400D03*
X003830Y008400D03*
X004830Y008400D03*
X005830Y008400D03*
X006830Y008400D03*
D12*
X006544Y004000D02*
X006116Y004000D01*
X006280Y003836D01*
X006280Y003464D01*
X006016Y003200D01*
X005644Y003200D01*
X005380Y003464D01*
X005380Y003836D01*
X005539Y003995D01*
X005121Y003995D01*
X005280Y003836D01*
X005280Y003464D01*
X005016Y003200D01*
X004644Y003200D01*
X004380Y003464D01*
X004380Y003836D01*
X004539Y003995D01*
X004121Y003995D01*
X004280Y003836D01*
X004280Y003464D01*
X004016Y003200D01*
X003644Y003200D01*
X003380Y003464D01*
X003380Y003836D01*
X003539Y003995D01*
X003121Y003995D01*
X003280Y003836D01*
X003280Y003464D01*
X003016Y003200D01*
X002644Y003200D01*
X002380Y003464D01*
X002380Y003836D01*
X002539Y003995D01*
X002121Y003995D01*
X002280Y003836D01*
X002280Y003464D01*
X002016Y003200D01*
X001644Y003200D01*
X001380Y003464D01*
X001380Y003836D01*
X001544Y004000D01*
X001116Y004000D01*
X001280Y003836D01*
X001280Y003464D01*
X001016Y003200D01*
X000644Y003200D01*
X000480Y003364D01*
X000480Y000936D01*
X000644Y001100D01*
X000670Y001100D01*
X000670Y001216D01*
X000764Y001310D01*
X001014Y001560D01*
X002350Y001560D01*
X002350Y001620D01*
X002470Y001740D01*
X002014Y001740D01*
X001920Y001834D01*
X001584Y002170D01*
X001485Y002170D01*
X001350Y002305D01*
X001350Y002495D01*
X001485Y002630D01*
X001675Y002630D01*
X001810Y002495D01*
X001810Y002396D01*
X002146Y002060D01*
X002646Y002060D01*
X002896Y001810D01*
X002990Y001716D01*
X002990Y001100D01*
X003016Y001100D01*
X003280Y000836D01*
X003280Y000464D01*
X003116Y000300D01*
X003544Y000300D01*
X003380Y000464D01*
X003380Y000836D01*
X003644Y001100D01*
X003670Y001100D01*
X003670Y001779D01*
X003725Y001834D01*
X003725Y001933D01*
X003860Y002067D01*
X004050Y002067D01*
X004185Y001933D01*
X004185Y001742D01*
X004050Y001608D01*
X003990Y001608D01*
X003990Y001100D01*
X004016Y001100D01*
X004280Y000836D01*
X004280Y000464D01*
X004116Y000300D01*
X004544Y000300D01*
X004380Y000464D01*
X004380Y000836D01*
X004644Y001100D01*
X004670Y001100D01*
X004670Y002084D01*
X004084Y002670D01*
X003985Y002670D01*
X003850Y002805D01*
X003850Y002995D01*
X003985Y003130D01*
X004175Y003130D01*
X004310Y002995D01*
X004310Y002896D01*
X004896Y002310D01*
X004990Y002216D01*
X004990Y001100D01*
X005016Y001100D01*
X005280Y000836D01*
X005280Y000464D01*
X005116Y000300D01*
X005544Y000300D01*
X005380Y000464D01*
X005380Y000836D01*
X005644Y001100D01*
X006016Y001100D01*
X006280Y000836D01*
X006280Y000464D01*
X006116Y000300D01*
X006473Y000300D01*
X006330Y000443D01*
X006330Y000600D01*
X006780Y000600D01*
X006780Y000700D01*
X006780Y001150D01*
X006623Y001150D01*
X006330Y000857D01*
X006330Y000700D01*
X006780Y000700D01*
X006880Y000700D01*
X006880Y001150D01*
X007037Y001150D01*
X007172Y001015D01*
X007172Y003356D01*
X007016Y003200D01*
X006644Y003200D01*
X006380Y003464D01*
X006380Y003836D01*
X006544Y004000D01*
X006535Y003992D02*
X006125Y003992D01*
X006223Y003893D02*
X006437Y003893D01*
X006380Y003795D02*
X006280Y003795D01*
X006280Y003696D02*
X006380Y003696D01*
X006380Y003598D02*
X006280Y003598D01*
X006280Y003499D02*
X006380Y003499D01*
X006443Y003401D02*
X006217Y003401D01*
X006118Y003302D02*
X006542Y003302D01*
X006640Y003204D02*
X006020Y003204D01*
X005640Y003204D02*
X005020Y003204D01*
X005118Y003302D02*
X005542Y003302D01*
X005443Y003401D02*
X005217Y003401D01*
X005280Y003499D02*
X005380Y003499D01*
X005380Y003598D02*
X005280Y003598D01*
X005280Y003696D02*
X005380Y003696D01*
X005380Y003795D02*
X005280Y003795D01*
X005223Y003893D02*
X005437Y003893D01*
X005535Y003992D02*
X005125Y003992D01*
X004535Y003992D02*
X004125Y003992D01*
X004223Y003893D02*
X004437Y003893D01*
X004380Y003795D02*
X004280Y003795D01*
X004280Y003696D02*
X004380Y003696D01*
X004380Y003598D02*
X004280Y003598D01*
X004280Y003499D02*
X004380Y003499D01*
X004443Y003401D02*
X004217Y003401D01*
X004118Y003302D02*
X004542Y003302D01*
X004640Y003204D02*
X004020Y003204D01*
X003960Y003105D02*
X000480Y003105D01*
X000480Y003007D02*
X003861Y003007D01*
X003850Y002908D02*
X000480Y002908D01*
X000480Y002810D02*
X003850Y002810D01*
X003944Y002711D02*
X000480Y002711D01*
X000480Y002613D02*
X001467Y002613D01*
X001369Y002514D02*
X000480Y002514D01*
X000480Y002416D02*
X001350Y002416D01*
X001350Y002317D02*
X000480Y002317D01*
X000480Y002219D02*
X001436Y002219D01*
X001634Y002120D02*
X000480Y002120D01*
X000480Y002022D02*
X001732Y002022D01*
X001831Y001923D02*
X000480Y001923D01*
X000480Y001825D02*
X001929Y001825D01*
X002086Y002120D02*
X004634Y002120D01*
X004670Y002022D02*
X004096Y002022D01*
X004185Y001923D02*
X004670Y001923D01*
X004670Y001825D02*
X004185Y001825D01*
X004169Y001726D02*
X004670Y001726D01*
X004670Y001628D02*
X004070Y001628D01*
X003990Y001529D02*
X004670Y001529D01*
X004670Y001431D02*
X003990Y001431D01*
X003990Y001332D02*
X004670Y001332D01*
X004670Y001234D02*
X003990Y001234D01*
X003990Y001135D02*
X004670Y001135D01*
X004580Y001037D02*
X004080Y001037D01*
X004178Y000938D02*
X004482Y000938D01*
X004383Y000840D02*
X004277Y000840D01*
X004280Y000741D02*
X004380Y000741D01*
X004380Y000643D02*
X004280Y000643D01*
X004280Y000544D02*
X004380Y000544D01*
X004398Y000446D02*
X004262Y000446D01*
X004163Y000347D02*
X004497Y000347D01*
X005080Y001037D02*
X005580Y001037D01*
X005482Y000938D02*
X005178Y000938D01*
X005277Y000840D02*
X005383Y000840D01*
X005380Y000741D02*
X005280Y000741D01*
X005280Y000643D02*
X005380Y000643D01*
X005380Y000544D02*
X005280Y000544D01*
X005262Y000446D02*
X005398Y000446D01*
X005497Y000347D02*
X005163Y000347D01*
X004990Y001135D02*
X006608Y001135D01*
X006509Y001037D02*
X006080Y001037D01*
X006178Y000938D02*
X006411Y000938D01*
X006330Y000840D02*
X006277Y000840D01*
X006280Y000741D02*
X006330Y000741D01*
X006280Y000643D02*
X006780Y000643D01*
X006780Y000741D02*
X006880Y000741D01*
X006880Y000840D02*
X006780Y000840D01*
X006780Y000938D02*
X006880Y000938D01*
X006880Y001037D02*
X006780Y001037D01*
X006780Y001135D02*
X006880Y001135D01*
X007052Y001135D02*
X007172Y001135D01*
X007172Y001037D02*
X007151Y001037D01*
X007172Y001234D02*
X004990Y001234D01*
X004990Y001332D02*
X007172Y001332D01*
X007172Y001431D02*
X004990Y001431D01*
X004990Y001529D02*
X007172Y001529D01*
X007172Y001628D02*
X004990Y001628D01*
X004990Y001726D02*
X007172Y001726D01*
X007172Y001825D02*
X004990Y001825D01*
X004990Y001923D02*
X007172Y001923D01*
X007172Y002022D02*
X004990Y002022D01*
X004990Y002120D02*
X007172Y002120D01*
X007172Y002219D02*
X004988Y002219D01*
X004889Y002317D02*
X007172Y002317D01*
X007172Y002416D02*
X004791Y002416D01*
X004692Y002514D02*
X007172Y002514D01*
X007172Y002613D02*
X004594Y002613D01*
X004495Y002711D02*
X007172Y002711D01*
X007172Y002810D02*
X004397Y002810D01*
X004310Y002908D02*
X007172Y002908D01*
X007172Y003007D02*
X004299Y003007D01*
X004200Y003105D02*
X007172Y003105D01*
X007172Y003204D02*
X007020Y003204D01*
X007118Y003302D02*
X007172Y003302D01*
X006330Y000544D02*
X006280Y000544D01*
X006262Y000446D02*
X006330Y000446D01*
X006426Y000347D02*
X006163Y000347D01*
X004535Y002219D02*
X001988Y002219D01*
X001889Y002317D02*
X004437Y002317D01*
X004338Y002416D02*
X001810Y002416D01*
X001791Y002514D02*
X004240Y002514D01*
X004141Y002613D02*
X001693Y002613D01*
X001640Y003204D02*
X001020Y003204D01*
X001118Y003302D02*
X001542Y003302D01*
X001443Y003401D02*
X001217Y003401D01*
X001280Y003499D02*
X001380Y003499D01*
X001380Y003598D02*
X001280Y003598D01*
X001280Y003696D02*
X001380Y003696D01*
X001380Y003795D02*
X001280Y003795D01*
X001223Y003893D02*
X001437Y003893D01*
X001535Y003992D02*
X001125Y003992D01*
X000542Y003302D02*
X000480Y003302D01*
X000480Y003204D02*
X000640Y003204D01*
X000480Y001726D02*
X002456Y001726D01*
X002357Y001628D02*
X000480Y001628D01*
X000480Y001529D02*
X000983Y001529D01*
X000884Y001431D02*
X000480Y001431D01*
X000480Y001332D02*
X000786Y001332D01*
X000687Y001234D02*
X000480Y001234D01*
X000480Y001135D02*
X000670Y001135D01*
X000580Y001037D02*
X000480Y001037D01*
X000480Y000938D02*
X000482Y000938D01*
X001006Y001100D02*
X001146Y001240D01*
X002521Y001240D01*
X002576Y001295D01*
X002670Y001295D01*
X002670Y001100D01*
X002644Y001100D01*
X002380Y000836D01*
X002380Y000464D01*
X002544Y000300D01*
X002116Y000300D01*
X002280Y000464D01*
X002280Y000836D01*
X002016Y001100D01*
X001644Y001100D01*
X001380Y000836D01*
X001380Y000464D01*
X001544Y000300D01*
X001116Y000300D01*
X001280Y000464D01*
X001280Y000836D01*
X001016Y001100D01*
X001006Y001100D01*
X001041Y001135D02*
X002670Y001135D01*
X002670Y001234D02*
X001140Y001234D01*
X001080Y001037D02*
X001580Y001037D01*
X001482Y000938D02*
X001178Y000938D01*
X001277Y000840D02*
X001383Y000840D01*
X001380Y000741D02*
X001280Y000741D01*
X001280Y000643D02*
X001380Y000643D01*
X001380Y000544D02*
X001280Y000544D01*
X001262Y000446D02*
X001398Y000446D01*
X001497Y000347D02*
X001163Y000347D01*
X002080Y001037D02*
X002580Y001037D01*
X002482Y000938D02*
X002178Y000938D01*
X002277Y000840D02*
X002383Y000840D01*
X002380Y000741D02*
X002280Y000741D01*
X002280Y000643D02*
X002380Y000643D01*
X002380Y000544D02*
X002280Y000544D01*
X002262Y000446D02*
X002398Y000446D01*
X002497Y000347D02*
X002163Y000347D01*
X002990Y001135D02*
X003670Y001135D01*
X003670Y001234D02*
X002990Y001234D01*
X002990Y001332D02*
X003670Y001332D01*
X003670Y001431D02*
X002990Y001431D01*
X002990Y001529D02*
X003670Y001529D01*
X003670Y001628D02*
X002990Y001628D01*
X002980Y001726D02*
X003670Y001726D01*
X003716Y001825D02*
X002882Y001825D01*
X002783Y001923D02*
X003725Y001923D01*
X003814Y002022D02*
X002685Y002022D01*
X003080Y001037D02*
X003580Y001037D01*
X003482Y000938D02*
X003178Y000938D01*
X003277Y000840D02*
X003383Y000840D01*
X003380Y000741D02*
X003280Y000741D01*
X003280Y000643D02*
X003380Y000643D01*
X003380Y000544D02*
X003280Y000544D01*
X003262Y000446D02*
X003398Y000446D01*
X003497Y000347D02*
X003163Y000347D01*
X003020Y003204D02*
X003640Y003204D01*
X003542Y003302D02*
X003118Y003302D01*
X003217Y003401D02*
X003443Y003401D01*
X003380Y003499D02*
X003280Y003499D01*
X003280Y003598D02*
X003380Y003598D01*
X003380Y003696D02*
X003280Y003696D01*
X003280Y003795D02*
X003380Y003795D01*
X003437Y003893D02*
X003223Y003893D01*
X003125Y003992D02*
X003535Y003992D01*
X002640Y003204D02*
X002020Y003204D01*
X002118Y003302D02*
X002542Y003302D01*
X002443Y003401D02*
X002217Y003401D01*
X002280Y003499D02*
X002380Y003499D01*
X002380Y003598D02*
X002280Y003598D01*
X002280Y003696D02*
X002380Y003696D01*
X002380Y003795D02*
X002280Y003795D01*
X002223Y003893D02*
X002437Y003893D01*
X002535Y003992D02*
X002125Y003992D01*
D13*
X001330Y003275D03*
X001580Y002400D03*
X001580Y002025D03*
X002205Y002275D03*
X002580Y001525D03*
X002330Y001025D03*
X003330Y001025D03*
X003955Y001838D03*
X003205Y002275D03*
X003330Y003275D03*
X004080Y002900D03*
X004330Y003275D03*
X005580Y002275D03*
X006330Y003275D03*
X003955Y006525D03*
X003330Y005775D03*
X002580Y006150D03*
X002330Y005775D03*
X001580Y006775D03*
X001580Y007150D03*
X002205Y007025D03*
X001330Y008025D03*
X003205Y007025D03*
X003330Y008025D03*
X004080Y007650D03*
X004330Y008025D03*
X005580Y007025D03*
X006330Y008025D03*
D14*
X006170Y008090D02*
X006490Y008090D01*
X006371Y008208D02*
X006289Y008208D01*
X006290Y008209D02*
X006290Y008591D01*
X006146Y008735D01*
X006514Y008735D01*
X006370Y008591D01*
X006370Y008209D01*
X006639Y007940D01*
X007021Y007940D01*
X007162Y008082D01*
X007162Y005789D01*
X007041Y005910D01*
X006870Y005910D01*
X006870Y005440D01*
X006790Y005440D01*
X006790Y005910D01*
X006619Y005910D01*
X006320Y005611D01*
X006320Y005440D01*
X006790Y005440D01*
X006790Y005360D01*
X006320Y005360D01*
X006320Y005189D01*
X006449Y005060D01*
X006141Y005060D01*
X006290Y005209D01*
X006290Y005591D01*
X006021Y005860D01*
X005639Y005860D01*
X005370Y005591D01*
X005370Y005209D01*
X005519Y005060D01*
X005141Y005060D01*
X005290Y005209D01*
X005290Y005591D01*
X005021Y005860D01*
X005000Y005860D01*
X005000Y006970D01*
X004900Y007070D01*
X004320Y007650D01*
X004320Y007698D01*
X004283Y007786D01*
X004216Y007853D01*
X004128Y007890D01*
X004032Y007890D01*
X003944Y007853D01*
X003877Y007786D01*
X003840Y007698D01*
X003840Y007602D01*
X003877Y007514D01*
X003944Y007447D01*
X004032Y007410D01*
X004080Y007410D01*
X004660Y006830D01*
X004660Y005860D01*
X004639Y005860D01*
X004370Y005591D01*
X004370Y005209D01*
X004519Y005060D01*
X004141Y005060D01*
X004290Y005209D01*
X004290Y005591D01*
X004021Y005860D01*
X004000Y005860D01*
X004000Y006285D01*
X004003Y006285D01*
X004091Y006322D01*
X004158Y006389D01*
X004195Y006477D01*
X004195Y006573D01*
X004158Y006661D01*
X004091Y006728D01*
X004003Y006765D01*
X003907Y006765D01*
X003819Y006728D01*
X003752Y006661D01*
X003715Y006573D01*
X003715Y006525D01*
X003660Y006470D01*
X003660Y005860D01*
X003639Y005860D01*
X003370Y005591D01*
X003370Y005209D01*
X003519Y005060D01*
X003141Y005060D01*
X003290Y005209D01*
X003290Y005591D01*
X003021Y005860D01*
X003000Y005860D01*
X003000Y006345D01*
X002525Y006820D01*
X002150Y006820D01*
X001820Y007150D01*
X001820Y007198D01*
X001783Y007286D01*
X001716Y007353D01*
X001628Y007390D01*
X001532Y007390D01*
X001444Y007353D01*
X001377Y007286D01*
X001340Y007198D01*
X001340Y007102D01*
X001377Y007014D01*
X001444Y006947D01*
X001532Y006910D01*
X001580Y006910D01*
X001910Y006580D01*
X002010Y006480D01*
X002385Y006480D01*
X002491Y006373D01*
X002444Y006353D01*
X002411Y006320D01*
X001010Y006320D01*
X000760Y006070D01*
X000660Y005970D01*
X000660Y005860D01*
X000639Y005860D01*
X000490Y005711D01*
X000490Y008089D01*
X000639Y007940D01*
X001021Y007940D01*
X001290Y008209D01*
X001290Y008591D01*
X001146Y008735D01*
X001514Y008735D01*
X001370Y008591D01*
X001370Y008209D01*
X001639Y007940D01*
X002021Y007940D01*
X002290Y008209D01*
X002290Y008591D01*
X002146Y008735D01*
X002514Y008735D01*
X002370Y008591D01*
X002370Y008209D01*
X002639Y007940D01*
X003021Y007940D01*
X003290Y008209D01*
X003290Y008591D01*
X003146Y008735D01*
X003514Y008735D01*
X003370Y008591D01*
X003370Y008209D01*
X003639Y007940D01*
X004021Y007940D01*
X004290Y008209D01*
X004290Y008591D01*
X004146Y008735D01*
X004514Y008735D01*
X004370Y008591D01*
X004370Y008209D01*
X004639Y007940D01*
X005021Y007940D01*
X005290Y008209D01*
X005290Y008591D01*
X005146Y008735D01*
X005514Y008735D01*
X005370Y008591D01*
X005370Y008209D01*
X005639Y007940D01*
X006021Y007940D01*
X006290Y008209D01*
X006290Y008327D02*
X006370Y008327D01*
X006370Y008445D02*
X006290Y008445D01*
X006290Y008564D02*
X006370Y008564D01*
X006461Y008682D02*
X006199Y008682D01*
X006052Y007971D02*
X006608Y007971D01*
X007052Y007971D02*
X007162Y007971D01*
X007162Y007853D02*
X004217Y007853D01*
X004305Y007734D02*
X007162Y007734D01*
X007162Y007616D02*
X004355Y007616D01*
X004473Y007497D02*
X007162Y007497D01*
X007162Y007379D02*
X004592Y007379D01*
X004710Y007260D02*
X007162Y007260D01*
X007162Y007142D02*
X004829Y007142D01*
X004947Y007023D02*
X007162Y007023D01*
X007162Y006905D02*
X005000Y006905D01*
X005000Y006786D02*
X007162Y006786D01*
X007162Y006668D02*
X005000Y006668D01*
X005000Y006549D02*
X007162Y006549D01*
X007162Y006431D02*
X005000Y006431D01*
X005000Y006312D02*
X007162Y006312D01*
X007162Y006194D02*
X005000Y006194D01*
X005000Y006075D02*
X007162Y006075D01*
X007162Y005957D02*
X005000Y005957D01*
X005043Y005838D02*
X005617Y005838D01*
X005499Y005720D02*
X005161Y005720D01*
X005280Y005601D02*
X005380Y005601D01*
X005370Y005483D02*
X005290Y005483D01*
X005290Y005364D02*
X005370Y005364D01*
X005370Y005246D02*
X005290Y005246D01*
X005208Y005127D02*
X005452Y005127D01*
X004830Y005400D02*
X004830Y006900D01*
X004080Y007650D01*
X003943Y007853D02*
X000490Y007853D01*
X000490Y007971D02*
X000608Y007971D01*
X000490Y007734D02*
X003855Y007734D01*
X003840Y007616D02*
X000490Y007616D01*
X000490Y007497D02*
X003894Y007497D01*
X004111Y007379D02*
X001655Y007379D01*
X001794Y007260D02*
X004230Y007260D01*
X004348Y007142D02*
X001829Y007142D01*
X001947Y007023D02*
X004467Y007023D01*
X004585Y006905D02*
X002066Y006905D01*
X002080Y006650D02*
X002455Y006650D01*
X002830Y006275D01*
X002830Y005400D01*
X002499Y005720D02*
X002161Y005720D01*
X002043Y005838D02*
X002617Y005838D01*
X002639Y005860D02*
X002370Y005591D01*
X002370Y005209D01*
X002519Y005060D01*
X002141Y005060D01*
X002290Y005209D01*
X002290Y005591D01*
X002021Y005860D01*
X001639Y005860D01*
X001370Y005591D01*
X001370Y005209D01*
X001519Y005060D01*
X001141Y005060D01*
X001290Y005209D01*
X001290Y005591D01*
X001025Y005855D01*
X001150Y005980D01*
X002411Y005980D01*
X002444Y005947D01*
X002532Y005910D01*
X002628Y005910D01*
X002660Y005923D01*
X002660Y005860D01*
X002639Y005860D01*
X002434Y005957D02*
X001127Y005957D01*
X001043Y005838D02*
X001617Y005838D01*
X001499Y005720D02*
X001161Y005720D01*
X001280Y005601D02*
X001380Y005601D01*
X001370Y005483D02*
X001290Y005483D01*
X001290Y005364D02*
X001370Y005364D01*
X001370Y005246D02*
X001290Y005246D01*
X001208Y005127D02*
X001452Y005127D01*
X000830Y005400D02*
X000830Y005900D01*
X001080Y006150D01*
X002580Y006150D01*
X002434Y006431D02*
X000490Y006431D01*
X000490Y006549D02*
X001941Y006549D01*
X001822Y006668D02*
X000490Y006668D01*
X000490Y006786D02*
X001704Y006786D01*
X001585Y006905D02*
X000490Y006905D01*
X000490Y007023D02*
X001373Y007023D01*
X001340Y007142D02*
X000490Y007142D01*
X000490Y007260D02*
X001366Y007260D01*
X001505Y007379D02*
X000490Y007379D01*
X001052Y007971D02*
X001608Y007971D01*
X001490Y008090D02*
X001170Y008090D01*
X001289Y008208D02*
X001371Y008208D01*
X001370Y008327D02*
X001290Y008327D01*
X001290Y008445D02*
X001370Y008445D01*
X001370Y008564D02*
X001290Y008564D01*
X001199Y008682D02*
X001461Y008682D01*
X002052Y007971D02*
X002608Y007971D01*
X002490Y008090D02*
X002170Y008090D01*
X002289Y008208D02*
X002371Y008208D01*
X002370Y008327D02*
X002290Y008327D01*
X002290Y008445D02*
X002370Y008445D01*
X002370Y008564D02*
X002290Y008564D01*
X002199Y008682D02*
X002461Y008682D01*
X003052Y007971D02*
X003608Y007971D01*
X003490Y008090D02*
X003170Y008090D01*
X003289Y008208D02*
X003371Y008208D01*
X003370Y008327D02*
X003290Y008327D01*
X003290Y008445D02*
X003370Y008445D01*
X003370Y008564D02*
X003290Y008564D01*
X003199Y008682D02*
X003461Y008682D01*
X004052Y007971D02*
X004608Y007971D01*
X004490Y008090D02*
X004170Y008090D01*
X004289Y008208D02*
X004371Y008208D01*
X004370Y008327D02*
X004290Y008327D01*
X004290Y008445D02*
X004370Y008445D01*
X004370Y008564D02*
X004290Y008564D01*
X004199Y008682D02*
X004461Y008682D01*
X005052Y007971D02*
X005608Y007971D01*
X005490Y008090D02*
X005170Y008090D01*
X005289Y008208D02*
X005371Y008208D01*
X005370Y008327D02*
X005290Y008327D01*
X005290Y008445D02*
X005370Y008445D01*
X005370Y008564D02*
X005290Y008564D01*
X005199Y008682D02*
X005461Y008682D01*
X004660Y006786D02*
X002559Y006786D01*
X002678Y006668D02*
X003758Y006668D01*
X003715Y006549D02*
X002796Y006549D01*
X002915Y006431D02*
X003660Y006431D01*
X003660Y006312D02*
X003000Y006312D01*
X003000Y006194D02*
X003660Y006194D01*
X003660Y006075D02*
X003000Y006075D01*
X003000Y005957D02*
X003660Y005957D01*
X003617Y005838D02*
X003043Y005838D01*
X003161Y005720D02*
X003499Y005720D01*
X003380Y005601D02*
X003280Y005601D01*
X003290Y005483D02*
X003370Y005483D01*
X003370Y005364D02*
X003290Y005364D01*
X003290Y005246D02*
X003370Y005246D01*
X003452Y005127D02*
X003208Y005127D01*
X003830Y005400D02*
X003830Y006400D01*
X003955Y006525D01*
X004068Y006312D02*
X004660Y006312D01*
X004660Y006194D02*
X004000Y006194D01*
X004000Y006075D02*
X004660Y006075D01*
X004660Y005957D02*
X004000Y005957D01*
X004043Y005838D02*
X004617Y005838D01*
X004499Y005720D02*
X004161Y005720D01*
X004280Y005601D02*
X004380Y005601D01*
X004370Y005483D02*
X004290Y005483D01*
X004290Y005364D02*
X004370Y005364D01*
X004370Y005246D02*
X004290Y005246D01*
X004208Y005127D02*
X004452Y005127D01*
X004660Y006431D02*
X004176Y006431D01*
X004195Y006549D02*
X004660Y006549D01*
X004660Y006668D02*
X004152Y006668D01*
X002452Y005127D02*
X002208Y005127D01*
X002290Y005246D02*
X002370Y005246D01*
X002370Y005364D02*
X002290Y005364D01*
X002290Y005483D02*
X002370Y005483D01*
X002380Y005601D02*
X002280Y005601D01*
X002080Y006650D02*
X001580Y007150D01*
X001002Y006312D02*
X000490Y006312D01*
X000490Y006194D02*
X000883Y006194D01*
X000765Y006075D02*
X000490Y006075D01*
X000490Y005957D02*
X000660Y005957D01*
X000617Y005838D02*
X000490Y005838D01*
X000490Y005720D02*
X000499Y005720D01*
X001580Y002400D02*
X002080Y001900D01*
X002580Y001900D01*
X002830Y001650D01*
X002830Y000650D01*
X002455Y001400D02*
X001080Y001400D01*
X000830Y001150D01*
X000830Y000650D01*
X002455Y001400D02*
X002580Y001525D01*
X003830Y001713D02*
X003830Y000650D01*
X003830Y001713D02*
X003955Y001838D01*
X004830Y002150D02*
X004080Y002900D01*
X004830Y002150D02*
X004830Y000650D01*
X006208Y005127D02*
X006382Y005127D01*
X006320Y005246D02*
X006290Y005246D01*
X006290Y005364D02*
X006790Y005364D01*
X006790Y005483D02*
X006870Y005483D01*
X006870Y005601D02*
X006790Y005601D01*
X006790Y005720D02*
X006870Y005720D01*
X006870Y005838D02*
X006790Y005838D01*
X006547Y005838D02*
X006043Y005838D01*
X006161Y005720D02*
X006428Y005720D01*
X006320Y005601D02*
X006280Y005601D01*
X006290Y005483D02*
X006320Y005483D01*
X007113Y005838D02*
X007162Y005838D01*
M02*
