G75*
%MOIN*%
%OFA0B0*%
%FSLAX24Y24*%
%IPPOS*%
%LPD*%
%AMOC8*
5,1,8,0,0,1.08239X$1,22.5*
%
%ADD10C,0.0000*%
%ADD11C,0.0100*%
%ADD12C,0.0010*%
%ADD13C,0.0050*%
%ADD14C,0.0070*%
%ADD15C,0.0080*%
D10*
X000330Y000150D02*
X000330Y004145D01*
X000643Y004145D01*
X000680Y004147D01*
X000717Y004152D01*
X000753Y004161D01*
X000788Y004174D01*
X000821Y004190D01*
X000853Y004209D01*
X000883Y004231D01*
X000910Y004256D01*
X000935Y004283D01*
X000957Y004313D01*
X000976Y004345D01*
X000992Y004378D01*
X001005Y004413D01*
X001014Y004449D01*
X001019Y004486D01*
X001021Y004523D01*
X001019Y004560D01*
X001014Y004597D01*
X001005Y004633D01*
X000992Y004668D01*
X000976Y004701D01*
X000957Y004733D01*
X000935Y004763D01*
X000910Y004790D01*
X000883Y004815D01*
X000853Y004837D01*
X000821Y004856D01*
X000788Y004872D01*
X000753Y004885D01*
X000717Y004894D01*
X000680Y004899D01*
X000643Y004901D01*
X000643Y004900D02*
X000330Y004900D01*
X000330Y008895D01*
X007322Y008895D01*
X007322Y004900D01*
X007018Y004900D01*
X007018Y004901D02*
X006981Y004899D01*
X006944Y004894D01*
X006908Y004885D01*
X006873Y004872D01*
X006840Y004856D01*
X006808Y004837D01*
X006778Y004815D01*
X006751Y004790D01*
X006726Y004763D01*
X006704Y004733D01*
X006685Y004701D01*
X006669Y004668D01*
X006656Y004633D01*
X006647Y004597D01*
X006642Y004560D01*
X006640Y004523D01*
X006642Y004486D01*
X006647Y004449D01*
X006656Y004413D01*
X006669Y004378D01*
X006685Y004345D01*
X006704Y004313D01*
X006726Y004283D01*
X006751Y004256D01*
X006778Y004231D01*
X006808Y004209D01*
X006840Y004190D01*
X006873Y004174D01*
X006908Y004161D01*
X006944Y004152D01*
X006981Y004147D01*
X007018Y004145D01*
X007322Y004145D01*
X007322Y000150D01*
X000330Y000150D01*
X002018Y004145D02*
X005643Y004145D01*
X005680Y004147D01*
X005717Y004152D01*
X005753Y004161D01*
X005788Y004174D01*
X005821Y004190D01*
X005853Y004209D01*
X005883Y004231D01*
X005910Y004256D01*
X005935Y004283D01*
X005957Y004313D01*
X005976Y004345D01*
X005992Y004378D01*
X006005Y004413D01*
X006014Y004449D01*
X006019Y004486D01*
X006021Y004523D01*
X006019Y004560D01*
X006014Y004597D01*
X006005Y004633D01*
X005992Y004668D01*
X005976Y004701D01*
X005957Y004733D01*
X005935Y004763D01*
X005910Y004790D01*
X005883Y004815D01*
X005853Y004837D01*
X005821Y004856D01*
X005788Y004872D01*
X005753Y004885D01*
X005717Y004894D01*
X005680Y004899D01*
X005643Y004901D01*
X005643Y004900D02*
X002018Y004900D01*
X002018Y004901D02*
X001981Y004899D01*
X001944Y004894D01*
X001908Y004885D01*
X001873Y004872D01*
X001840Y004856D01*
X001808Y004837D01*
X001778Y004815D01*
X001751Y004790D01*
X001726Y004763D01*
X001704Y004733D01*
X001685Y004701D01*
X001669Y004668D01*
X001656Y004633D01*
X001647Y004597D01*
X001642Y004560D01*
X001640Y004523D01*
X001642Y004486D01*
X001647Y004449D01*
X001656Y004413D01*
X001669Y004378D01*
X001685Y004345D01*
X001704Y004313D01*
X001726Y004283D01*
X001751Y004256D01*
X001778Y004231D01*
X001808Y004209D01*
X001840Y004190D01*
X001873Y004174D01*
X001908Y004161D01*
X001944Y004152D01*
X001981Y004147D01*
X002018Y004145D01*
X001439Y004275D02*
X001441Y004293D01*
X001447Y004309D01*
X001456Y004324D01*
X001469Y004337D01*
X001484Y004346D01*
X001500Y004352D01*
X001518Y004354D01*
X001536Y004352D01*
X001552Y004346D01*
X001567Y004337D01*
X001580Y004324D01*
X001589Y004309D01*
X001595Y004293D01*
X001597Y004275D01*
X001595Y004257D01*
X001589Y004241D01*
X001580Y004226D01*
X001567Y004213D01*
X001552Y004204D01*
X001536Y004198D01*
X001518Y004196D01*
X001500Y004198D01*
X001484Y004204D01*
X001469Y004213D01*
X001456Y004226D01*
X001447Y004241D01*
X001441Y004257D01*
X001439Y004275D01*
X001064Y004275D02*
X001066Y004293D01*
X001072Y004309D01*
X001081Y004324D01*
X001094Y004337D01*
X001109Y004346D01*
X001125Y004352D01*
X001143Y004354D01*
X001161Y004352D01*
X001177Y004346D01*
X001192Y004337D01*
X001205Y004324D01*
X001214Y004309D01*
X001220Y004293D01*
X001222Y004275D01*
X001220Y004257D01*
X001214Y004241D01*
X001205Y004226D01*
X001192Y004213D01*
X001177Y004204D01*
X001161Y004198D01*
X001143Y004196D01*
X001125Y004198D01*
X001109Y004204D01*
X001094Y004213D01*
X001081Y004226D01*
X001072Y004241D01*
X001066Y004257D01*
X001064Y004275D01*
X001064Y004775D02*
X001066Y004793D01*
X001072Y004809D01*
X001081Y004824D01*
X001094Y004837D01*
X001109Y004846D01*
X001125Y004852D01*
X001143Y004854D01*
X001161Y004852D01*
X001177Y004846D01*
X001192Y004837D01*
X001205Y004824D01*
X001214Y004809D01*
X001220Y004793D01*
X001222Y004775D01*
X001220Y004757D01*
X001214Y004741D01*
X001205Y004726D01*
X001192Y004713D01*
X001177Y004704D01*
X001161Y004698D01*
X001143Y004696D01*
X001125Y004698D01*
X001109Y004704D01*
X001094Y004713D01*
X001081Y004726D01*
X001072Y004741D01*
X001066Y004757D01*
X001064Y004775D01*
X001439Y004775D02*
X001441Y004793D01*
X001447Y004809D01*
X001456Y004824D01*
X001469Y004837D01*
X001484Y004846D01*
X001500Y004852D01*
X001518Y004854D01*
X001536Y004852D01*
X001552Y004846D01*
X001567Y004837D01*
X001580Y004824D01*
X001589Y004809D01*
X001595Y004793D01*
X001597Y004775D01*
X001595Y004757D01*
X001589Y004741D01*
X001580Y004726D01*
X001567Y004713D01*
X001552Y004704D01*
X001536Y004698D01*
X001518Y004696D01*
X001500Y004698D01*
X001484Y004704D01*
X001469Y004713D01*
X001456Y004726D01*
X001447Y004741D01*
X001441Y004757D01*
X001439Y004775D01*
X006064Y004775D02*
X006066Y004793D01*
X006072Y004809D01*
X006081Y004824D01*
X006094Y004837D01*
X006109Y004846D01*
X006125Y004852D01*
X006143Y004854D01*
X006161Y004852D01*
X006177Y004846D01*
X006192Y004837D01*
X006205Y004824D01*
X006214Y004809D01*
X006220Y004793D01*
X006222Y004775D01*
X006220Y004757D01*
X006214Y004741D01*
X006205Y004726D01*
X006192Y004713D01*
X006177Y004704D01*
X006161Y004698D01*
X006143Y004696D01*
X006125Y004698D01*
X006109Y004704D01*
X006094Y004713D01*
X006081Y004726D01*
X006072Y004741D01*
X006066Y004757D01*
X006064Y004775D01*
X006064Y004275D02*
X006066Y004293D01*
X006072Y004309D01*
X006081Y004324D01*
X006094Y004337D01*
X006109Y004346D01*
X006125Y004352D01*
X006143Y004354D01*
X006161Y004352D01*
X006177Y004346D01*
X006192Y004337D01*
X006205Y004324D01*
X006214Y004309D01*
X006220Y004293D01*
X006222Y004275D01*
X006220Y004257D01*
X006214Y004241D01*
X006205Y004226D01*
X006192Y004213D01*
X006177Y004204D01*
X006161Y004198D01*
X006143Y004196D01*
X006125Y004198D01*
X006109Y004204D01*
X006094Y004213D01*
X006081Y004226D01*
X006072Y004241D01*
X006066Y004257D01*
X006064Y004275D01*
X006439Y004275D02*
X006441Y004293D01*
X006447Y004309D01*
X006456Y004324D01*
X006469Y004337D01*
X006484Y004346D01*
X006500Y004352D01*
X006518Y004354D01*
X006536Y004352D01*
X006552Y004346D01*
X006567Y004337D01*
X006580Y004324D01*
X006589Y004309D01*
X006595Y004293D01*
X006597Y004275D01*
X006595Y004257D01*
X006589Y004241D01*
X006580Y004226D01*
X006567Y004213D01*
X006552Y004204D01*
X006536Y004198D01*
X006518Y004196D01*
X006500Y004198D01*
X006484Y004204D01*
X006469Y004213D01*
X006456Y004226D01*
X006447Y004241D01*
X006441Y004257D01*
X006439Y004275D01*
X006439Y004775D02*
X006441Y004793D01*
X006447Y004809D01*
X006456Y004824D01*
X006469Y004837D01*
X006484Y004846D01*
X006500Y004852D01*
X006518Y004854D01*
X006536Y004852D01*
X006552Y004846D01*
X006567Y004837D01*
X006580Y004824D01*
X006589Y004809D01*
X006595Y004793D01*
X006597Y004775D01*
X006595Y004757D01*
X006589Y004741D01*
X006580Y004726D01*
X006567Y004713D01*
X006552Y004704D01*
X006536Y004698D01*
X006518Y004696D01*
X006500Y004698D01*
X006484Y004704D01*
X006469Y004713D01*
X006456Y004726D01*
X006447Y004741D01*
X006441Y004757D01*
X006439Y004775D01*
D11*
X005830Y005650D02*
X005830Y006275D01*
X005455Y006275D01*
X004955Y005900D02*
X004580Y005900D01*
X004955Y006650D02*
X005010Y006632D01*
X005064Y006610D01*
X005116Y006585D01*
X005167Y006557D01*
X005215Y006525D01*
X005262Y006490D01*
X005306Y006452D01*
X005348Y006412D01*
X005386Y006369D01*
X005422Y006323D01*
X005455Y006275D01*
X004955Y006650D02*
X004580Y006650D01*
X004955Y005900D02*
X005010Y005918D01*
X005064Y005940D01*
X005116Y005965D01*
X005167Y005993D01*
X005215Y006025D01*
X005262Y006060D01*
X005306Y006098D01*
X005348Y006138D01*
X005386Y006181D01*
X005422Y006227D01*
X005455Y006275D01*
X006455Y007525D02*
X006422Y007573D01*
X006386Y007619D01*
X006348Y007662D01*
X006306Y007702D01*
X006262Y007740D01*
X006215Y007775D01*
X006167Y007807D01*
X006116Y007835D01*
X006064Y007860D01*
X006010Y007882D01*
X005955Y007900D01*
X005580Y007900D01*
X005643Y007713D02*
X005330Y007713D01*
X005330Y008025D01*
X005580Y008275D01*
X006455Y007525D02*
X006422Y007477D01*
X006386Y007431D01*
X006348Y007388D01*
X006306Y007348D01*
X006262Y007310D01*
X006215Y007275D01*
X006167Y007243D01*
X006116Y007215D01*
X006064Y007190D01*
X006010Y007168D01*
X005955Y007150D01*
X005580Y007150D01*
X005643Y007338D02*
X004830Y007338D01*
X004830Y008150D01*
X005580Y007900D02*
X005609Y007868D01*
X005636Y007833D01*
X005660Y007796D01*
X005681Y007758D01*
X005699Y007718D01*
X005713Y007676D01*
X005724Y007634D01*
X005731Y007591D01*
X005735Y007547D01*
X005735Y007503D01*
X005731Y007459D01*
X005724Y007416D01*
X005713Y007374D01*
X005699Y007332D01*
X005681Y007292D01*
X005660Y007254D01*
X005636Y007217D01*
X005609Y007182D01*
X005580Y007150D01*
X006455Y007525D02*
X006830Y007525D01*
X006830Y008150D01*
X004643Y006463D02*
X003830Y006463D01*
X003830Y005650D01*
X004330Y005775D02*
X004580Y005525D01*
X004330Y005775D02*
X004330Y006088D01*
X004643Y006088D01*
X004580Y005900D02*
X004609Y005932D01*
X004636Y005967D01*
X004660Y006004D01*
X004681Y006042D01*
X004699Y006082D01*
X004713Y006124D01*
X004724Y006166D01*
X004731Y006209D01*
X004735Y006253D01*
X004735Y006297D01*
X004731Y006341D01*
X004724Y006384D01*
X004713Y006426D01*
X004699Y006468D01*
X004681Y006508D01*
X004660Y006546D01*
X004636Y006583D01*
X004609Y006618D01*
X004580Y006650D01*
X003830Y007525D02*
X003830Y008150D01*
X003830Y007525D02*
X003455Y007525D01*
X002955Y007150D02*
X002580Y007150D01*
X002955Y007900D02*
X003010Y007882D01*
X003064Y007860D01*
X003116Y007835D01*
X003167Y007807D01*
X003215Y007775D01*
X003262Y007740D01*
X003306Y007702D01*
X003348Y007662D01*
X003386Y007619D01*
X003422Y007573D01*
X003455Y007525D01*
X002955Y007900D02*
X002580Y007900D01*
X002643Y007713D02*
X002330Y007713D01*
X002330Y008025D01*
X002580Y008275D01*
X003455Y007525D02*
X003422Y007477D01*
X003386Y007431D01*
X003348Y007388D01*
X003306Y007348D01*
X003262Y007310D01*
X003215Y007275D01*
X003167Y007243D01*
X003116Y007215D01*
X003064Y007190D01*
X003010Y007168D01*
X002955Y007150D01*
X002643Y007338D02*
X001830Y007338D01*
X001830Y008150D01*
X002580Y007900D02*
X002609Y007868D01*
X002636Y007833D01*
X002660Y007796D01*
X002681Y007758D01*
X002699Y007718D01*
X002713Y007676D01*
X002724Y007634D01*
X002731Y007591D01*
X002735Y007547D01*
X002735Y007503D01*
X002731Y007459D01*
X002724Y007416D01*
X002713Y007374D01*
X002699Y007332D01*
X002681Y007292D01*
X002660Y007254D01*
X002636Y007217D01*
X002609Y007182D01*
X002580Y007150D01*
X001955Y006650D02*
X001580Y006650D01*
X001955Y005900D02*
X002010Y005918D01*
X002064Y005940D01*
X002116Y005965D01*
X002167Y005993D01*
X002215Y006025D01*
X002262Y006060D01*
X002306Y006098D01*
X002348Y006138D01*
X002386Y006181D01*
X002422Y006227D01*
X002455Y006275D01*
X002830Y006275D01*
X002830Y005650D01*
X001955Y005900D02*
X001580Y005900D01*
X001955Y006650D02*
X002010Y006632D01*
X002064Y006610D01*
X002116Y006585D01*
X002167Y006557D01*
X002215Y006525D01*
X002262Y006490D01*
X002306Y006452D01*
X002348Y006412D01*
X002386Y006369D01*
X002422Y006323D01*
X002455Y006275D01*
X001643Y006088D02*
X001330Y006088D01*
X001330Y005775D01*
X001580Y005525D01*
X001580Y005900D02*
X001609Y005932D01*
X001636Y005967D01*
X001660Y006004D01*
X001681Y006042D01*
X001699Y006082D01*
X001713Y006124D01*
X001724Y006166D01*
X001731Y006209D01*
X001735Y006253D01*
X001735Y006297D01*
X001731Y006341D01*
X001724Y006384D01*
X001713Y006426D01*
X001699Y006468D01*
X001681Y006508D01*
X001660Y006546D01*
X001636Y006583D01*
X001609Y006618D01*
X001580Y006650D01*
X001643Y006463D02*
X000830Y006463D01*
X000830Y005650D01*
X001830Y003400D02*
X001830Y002588D01*
X002580Y002588D01*
X002580Y002400D01*
X003080Y002400D01*
X003455Y002775D02*
X003453Y002812D01*
X003448Y002848D01*
X003439Y002884D01*
X003426Y002919D01*
X003411Y002952D01*
X003392Y002983D01*
X003370Y003013D01*
X003345Y003040D01*
X003318Y003065D01*
X003288Y003087D01*
X003257Y003106D01*
X003224Y003121D01*
X003189Y003134D01*
X003153Y003143D01*
X003117Y003148D01*
X003080Y003150D01*
X002580Y003150D01*
X002580Y002963D01*
X002330Y002963D01*
X002330Y003275D01*
X002580Y003525D01*
X002580Y002963D02*
X002580Y002588D01*
X003080Y002400D02*
X003117Y002402D01*
X003153Y002407D01*
X003189Y002416D01*
X003224Y002429D01*
X003257Y002444D01*
X003288Y002463D01*
X003318Y002485D01*
X003345Y002510D01*
X003370Y002537D01*
X003392Y002567D01*
X003411Y002598D01*
X003426Y002631D01*
X003439Y002666D01*
X003448Y002702D01*
X003453Y002738D01*
X003455Y002775D01*
X003705Y002775D02*
X003830Y002775D01*
X003830Y003400D01*
X004830Y003400D02*
X004830Y002588D01*
X005580Y002588D01*
X005580Y002400D01*
X006080Y002400D01*
X006455Y002775D02*
X006453Y002812D01*
X006448Y002848D01*
X006439Y002884D01*
X006426Y002919D01*
X006411Y002952D01*
X006392Y002983D01*
X006370Y003013D01*
X006345Y003040D01*
X006318Y003065D01*
X006288Y003087D01*
X006257Y003106D01*
X006224Y003121D01*
X006189Y003134D01*
X006153Y003143D01*
X006117Y003148D01*
X006080Y003150D01*
X005580Y003150D01*
X005580Y002963D01*
X005330Y002963D01*
X005330Y003275D01*
X005580Y003525D01*
X005580Y002963D02*
X005580Y002588D01*
X006080Y002400D02*
X006117Y002402D01*
X006153Y002407D01*
X006189Y002416D01*
X006224Y002429D01*
X006257Y002444D01*
X006288Y002463D01*
X006318Y002485D01*
X006345Y002510D01*
X006370Y002537D01*
X006392Y002567D01*
X006411Y002598D01*
X006426Y002631D01*
X006439Y002666D01*
X006448Y002702D01*
X006453Y002738D01*
X006455Y002775D01*
X006705Y002775D02*
X006830Y002775D01*
X006830Y003400D01*
X005830Y001525D02*
X005705Y001525D01*
X005830Y001525D02*
X005830Y000900D01*
X005080Y001150D02*
X004580Y001150D01*
X004580Y001338D01*
X004330Y001338D01*
X004330Y001025D01*
X004580Y000775D01*
X004580Y001338D02*
X004580Y001713D01*
X003830Y001713D01*
X003830Y000900D01*
X004580Y001713D02*
X004580Y001900D01*
X005080Y001900D01*
X005455Y001525D02*
X005453Y001488D01*
X005448Y001452D01*
X005439Y001416D01*
X005426Y001381D01*
X005411Y001348D01*
X005392Y001317D01*
X005370Y001287D01*
X005345Y001260D01*
X005318Y001235D01*
X005288Y001213D01*
X005257Y001194D01*
X005224Y001179D01*
X005189Y001166D01*
X005153Y001157D01*
X005117Y001152D01*
X005080Y001150D01*
X005455Y001525D02*
X005453Y001562D01*
X005448Y001598D01*
X005439Y001634D01*
X005426Y001669D01*
X005411Y001702D01*
X005392Y001733D01*
X005370Y001763D01*
X005345Y001790D01*
X005318Y001815D01*
X005288Y001837D01*
X005257Y001856D01*
X005224Y001871D01*
X005189Y001884D01*
X005153Y001893D01*
X005117Y001898D01*
X005080Y001900D01*
X002830Y001525D02*
X002830Y000900D01*
X002830Y001525D02*
X002705Y001525D01*
X002455Y001525D02*
X002453Y001488D01*
X002448Y001452D01*
X002439Y001416D01*
X002426Y001381D01*
X002411Y001348D01*
X002392Y001317D01*
X002370Y001287D01*
X002345Y001260D01*
X002318Y001235D01*
X002288Y001213D01*
X002257Y001194D01*
X002224Y001179D01*
X002189Y001166D01*
X002153Y001157D01*
X002117Y001152D01*
X002080Y001150D01*
X001580Y001150D01*
X001580Y001338D01*
X001330Y001338D01*
X001330Y001025D01*
X001580Y000775D01*
X001580Y001338D02*
X001580Y001713D01*
X000830Y001713D01*
X000830Y000900D01*
X001580Y001713D02*
X001580Y001900D01*
X002080Y001900D01*
X002117Y001898D01*
X002153Y001893D01*
X002189Y001884D01*
X002224Y001871D01*
X002257Y001856D01*
X002288Y001837D01*
X002318Y001815D01*
X002345Y001790D01*
X002370Y001763D01*
X002392Y001733D01*
X002411Y001702D01*
X002426Y001669D01*
X002439Y001634D01*
X002448Y001598D01*
X002453Y001562D01*
X002455Y001525D01*
D12*
X000695Y002022D02*
X000667Y001963D01*
X000630Y001909D01*
X000584Y001863D01*
X000530Y001825D01*
X000471Y001798D01*
X000408Y001781D01*
X000343Y001775D01*
X000343Y002525D01*
X000408Y002519D01*
X000471Y002502D01*
X000530Y002475D01*
X000584Y002437D01*
X000343Y002437D01*
X000343Y002445D02*
X000572Y002445D01*
X000584Y002437D02*
X000630Y002391D01*
X000667Y002338D01*
X000695Y002278D01*
X000712Y002215D01*
X000718Y002150D01*
X000712Y002085D01*
X000695Y002022D01*
X000694Y002020D02*
X000343Y002020D01*
X000343Y002012D02*
X000690Y002012D01*
X000686Y002003D02*
X000343Y002003D01*
X000343Y001995D02*
X000682Y001995D01*
X000678Y001986D02*
X000343Y001986D01*
X000343Y001978D02*
X000674Y001978D01*
X000670Y001969D02*
X000343Y001969D01*
X000343Y001961D02*
X000666Y001961D01*
X000660Y001952D02*
X000343Y001952D01*
X000343Y001944D02*
X000654Y001944D01*
X000648Y001935D02*
X000343Y001935D01*
X000343Y001927D02*
X000642Y001927D01*
X000636Y001918D02*
X000343Y001918D01*
X000343Y001910D02*
X000630Y001910D01*
X000622Y001901D02*
X000343Y001901D01*
X000343Y001893D02*
X000613Y001893D01*
X000605Y001884D02*
X000343Y001884D01*
X000343Y001876D02*
X000596Y001876D01*
X000588Y001867D02*
X000343Y001867D01*
X000343Y001859D02*
X000578Y001859D01*
X000565Y001850D02*
X000343Y001850D01*
X000343Y001842D02*
X000553Y001842D01*
X000541Y001833D02*
X000343Y001833D01*
X000343Y001825D02*
X000529Y001825D01*
X000510Y001816D02*
X000343Y001816D01*
X000343Y001808D02*
X000492Y001808D01*
X000474Y001799D02*
X000343Y001799D01*
X000343Y001791D02*
X000444Y001791D01*
X000413Y001782D02*
X000343Y001782D01*
X000343Y002029D02*
X000697Y002029D01*
X000699Y002037D02*
X000343Y002037D01*
X000343Y002046D02*
X000701Y002046D01*
X000704Y002054D02*
X000343Y002054D01*
X000343Y002063D02*
X000706Y002063D01*
X000708Y002071D02*
X000343Y002071D01*
X000343Y002080D02*
X000710Y002080D01*
X000712Y002088D02*
X000343Y002088D01*
X000343Y002097D02*
X000713Y002097D01*
X000714Y002105D02*
X000343Y002105D01*
X000343Y002114D02*
X000714Y002114D01*
X000715Y002122D02*
X000343Y002122D01*
X000343Y002131D02*
X000716Y002131D01*
X000717Y002139D02*
X000343Y002139D01*
X000343Y002148D02*
X000717Y002148D01*
X000717Y002156D02*
X000343Y002156D01*
X000343Y002165D02*
X000716Y002165D01*
X000715Y002173D02*
X000343Y002173D01*
X000343Y002182D02*
X000715Y002182D01*
X000714Y002190D02*
X000343Y002190D01*
X000343Y002199D02*
X000713Y002199D01*
X000713Y002207D02*
X000343Y002207D01*
X000343Y002216D02*
X000712Y002216D01*
X000709Y002224D02*
X000343Y002224D01*
X000343Y002233D02*
X000707Y002233D01*
X000705Y002241D02*
X000343Y002241D01*
X000343Y002250D02*
X000703Y002250D01*
X000700Y002258D02*
X000343Y002258D01*
X000343Y002267D02*
X000698Y002267D01*
X000696Y002275D02*
X000343Y002275D01*
X000343Y002284D02*
X000692Y002284D01*
X000688Y002292D02*
X000343Y002292D01*
X000343Y002301D02*
X000684Y002301D01*
X000681Y002309D02*
X000343Y002309D01*
X000343Y002318D02*
X000677Y002318D01*
X000673Y002326D02*
X000343Y002326D01*
X000343Y002335D02*
X000669Y002335D01*
X000663Y002343D02*
X000343Y002343D01*
X000343Y002352D02*
X000657Y002352D01*
X000651Y002360D02*
X000343Y002360D01*
X000343Y002369D02*
X000646Y002369D01*
X000640Y002377D02*
X000343Y002377D01*
X000343Y002386D02*
X000634Y002386D01*
X000627Y002394D02*
X000343Y002394D01*
X000343Y002403D02*
X000618Y002403D01*
X000610Y002411D02*
X000343Y002411D01*
X000343Y002420D02*
X000601Y002420D01*
X000593Y002428D02*
X000343Y002428D01*
X000343Y002454D02*
X000560Y002454D01*
X000548Y002462D02*
X000343Y002462D01*
X000343Y002471D02*
X000536Y002471D01*
X000521Y002479D02*
X000343Y002479D01*
X000343Y002488D02*
X000503Y002488D01*
X000484Y002496D02*
X000343Y002496D01*
X000343Y002505D02*
X000463Y002505D01*
X000431Y002513D02*
X000343Y002513D01*
X000343Y002522D02*
X000382Y002522D01*
X000343Y006525D02*
X000343Y007275D01*
X000408Y007269D01*
X000471Y007252D01*
X000530Y007225D01*
X000584Y007187D01*
X000630Y007141D01*
X000667Y007088D01*
X000695Y007028D01*
X000712Y006965D01*
X000718Y006900D01*
X000712Y006835D01*
X000695Y006772D01*
X000667Y006713D01*
X000630Y006659D01*
X000584Y006613D01*
X000530Y006575D01*
X000471Y006548D01*
X000408Y006531D01*
X000343Y006525D01*
X000345Y006525D01*
X000343Y006534D02*
X000419Y006534D01*
X000450Y006542D02*
X000343Y006542D01*
X000343Y006551D02*
X000477Y006551D01*
X000496Y006559D02*
X000343Y006559D01*
X000343Y006568D02*
X000514Y006568D01*
X000531Y006576D02*
X000343Y006576D01*
X000343Y006585D02*
X000543Y006585D01*
X000556Y006593D02*
X000343Y006593D01*
X000343Y006602D02*
X000568Y006602D01*
X000580Y006610D02*
X000343Y006610D01*
X000343Y006619D02*
X000589Y006619D01*
X000598Y006627D02*
X000343Y006627D01*
X000343Y006636D02*
X000606Y006636D01*
X000615Y006644D02*
X000343Y006644D01*
X000343Y006653D02*
X000624Y006653D01*
X000631Y006661D02*
X000343Y006661D01*
X000343Y006670D02*
X000637Y006670D01*
X000643Y006678D02*
X000343Y006678D01*
X000343Y006687D02*
X000649Y006687D01*
X000655Y006695D02*
X000343Y006695D01*
X000343Y006704D02*
X000661Y006704D01*
X000667Y006712D02*
X000343Y006712D01*
X000343Y006721D02*
X000671Y006721D01*
X000675Y006729D02*
X000343Y006729D01*
X000343Y006738D02*
X000679Y006738D01*
X000683Y006746D02*
X000343Y006746D01*
X000343Y006755D02*
X000687Y006755D01*
X000691Y006763D02*
X000343Y006763D01*
X000343Y006772D02*
X000695Y006772D01*
X000697Y006780D02*
X000343Y006780D01*
X000343Y006789D02*
X000699Y006789D01*
X000702Y006797D02*
X000343Y006797D01*
X000343Y006806D02*
X000704Y006806D01*
X000706Y006814D02*
X000343Y006814D01*
X000343Y006823D02*
X000709Y006823D01*
X000711Y006831D02*
X000343Y006831D01*
X000343Y006840D02*
X000712Y006840D01*
X000713Y006848D02*
X000343Y006848D01*
X000343Y006857D02*
X000714Y006857D01*
X000714Y006865D02*
X000343Y006865D01*
X000343Y006874D02*
X000715Y006874D01*
X000716Y006882D02*
X000343Y006882D01*
X000343Y006891D02*
X000717Y006891D01*
X000717Y006899D02*
X000343Y006899D01*
X000343Y006908D02*
X000717Y006908D01*
X000716Y006916D02*
X000343Y006916D01*
X000343Y006925D02*
X000715Y006925D01*
X000715Y006933D02*
X000343Y006933D01*
X000343Y006942D02*
X000714Y006942D01*
X000713Y006950D02*
X000343Y006950D01*
X000343Y006959D02*
X000712Y006959D01*
X000711Y006967D02*
X000343Y006967D01*
X000343Y006976D02*
X000709Y006976D01*
X000707Y006984D02*
X000343Y006984D01*
X000343Y006993D02*
X000704Y006993D01*
X000702Y007001D02*
X000343Y007001D01*
X000343Y007010D02*
X000700Y007010D01*
X000698Y007018D02*
X000343Y007018D01*
X000343Y007027D02*
X000695Y007027D01*
X000692Y007035D02*
X000343Y007035D01*
X000343Y007044D02*
X000688Y007044D01*
X000684Y007052D02*
X000343Y007052D01*
X000343Y007061D02*
X000680Y007061D01*
X000676Y007069D02*
X000343Y007069D01*
X000343Y007078D02*
X000672Y007078D01*
X000668Y007086D02*
X000343Y007086D01*
X000343Y007095D02*
X000662Y007095D01*
X000656Y007103D02*
X000343Y007103D01*
X000343Y007112D02*
X000650Y007112D01*
X000644Y007120D02*
X000343Y007120D01*
X000343Y007129D02*
X000638Y007129D01*
X000632Y007137D02*
X000343Y007137D01*
X000343Y007146D02*
X000625Y007146D01*
X000617Y007154D02*
X000343Y007154D01*
X000343Y007163D02*
X000608Y007163D01*
X000600Y007171D02*
X000343Y007171D01*
X000343Y007180D02*
X000591Y007180D01*
X000582Y007188D02*
X000343Y007188D01*
X000343Y007197D02*
X000570Y007197D01*
X000558Y007205D02*
X000343Y007205D01*
X000343Y007214D02*
X000546Y007214D01*
X000534Y007222D02*
X000343Y007222D01*
X000343Y007231D02*
X000517Y007231D01*
X000499Y007239D02*
X000343Y007239D01*
X000343Y007248D02*
X000481Y007248D01*
X000456Y007256D02*
X000343Y007256D01*
X000343Y007265D02*
X000425Y007265D01*
X000363Y007273D02*
X000343Y007273D01*
D13*
X000554Y007550D02*
X000637Y007633D01*
X000637Y007800D01*
X000747Y007759D02*
X000747Y007592D01*
X000789Y007550D01*
X000872Y007550D01*
X000914Y007592D01*
X001023Y007592D02*
X001065Y007550D01*
X001148Y007550D01*
X001190Y007592D01*
X001190Y007759D02*
X001148Y007800D01*
X001065Y007800D01*
X001023Y007759D01*
X001023Y007592D01*
X000914Y007759D02*
X000872Y007800D01*
X000789Y007800D01*
X000747Y007759D01*
X000554Y007550D02*
X000471Y007633D01*
X000471Y007800D01*
X000471Y003050D02*
X000471Y002883D01*
X000554Y002800D01*
X000637Y002883D01*
X000637Y003050D01*
X000747Y003009D02*
X000747Y002842D01*
X000789Y002800D01*
X000872Y002800D01*
X000914Y002842D01*
X001023Y002842D02*
X001065Y002800D01*
X001148Y002800D01*
X001190Y002842D01*
X001190Y003009D02*
X001148Y003050D01*
X001065Y003050D01*
X001023Y003009D01*
X001023Y002842D01*
X000914Y003009D02*
X000872Y003050D01*
X000789Y003050D01*
X000747Y003009D01*
X006471Y001509D02*
X006471Y001342D01*
X006512Y001300D01*
X006596Y001300D01*
X006637Y001342D01*
X006637Y001425D01*
X006554Y001425D01*
X006471Y001509D02*
X006512Y001550D01*
X006596Y001550D01*
X006637Y001509D01*
X006747Y001550D02*
X006747Y001300D01*
X006914Y001300D02*
X006747Y001550D01*
X006914Y001550D02*
X006914Y001300D01*
X007023Y001300D02*
X007148Y001300D01*
X007190Y001342D01*
X007190Y001509D01*
X007148Y001550D01*
X007023Y001550D01*
X007023Y001300D01*
X007023Y006050D02*
X007148Y006050D01*
X007190Y006092D01*
X007190Y006259D01*
X007148Y006300D01*
X007023Y006300D01*
X007023Y006050D01*
X006914Y006050D02*
X006914Y006300D01*
X006747Y006300D02*
X006747Y006050D01*
X006637Y006092D02*
X006637Y006175D01*
X006554Y006175D01*
X006471Y006092D02*
X006512Y006050D01*
X006596Y006050D01*
X006637Y006092D01*
X006471Y006092D02*
X006471Y006259D01*
X006512Y006300D01*
X006596Y006300D01*
X006637Y006259D01*
X006747Y006300D02*
X006914Y006050D01*
D14*
X004741Y006890D02*
X004425Y006806D01*
X004656Y007206D01*
X004635Y007285D01*
X004535Y007343D01*
X004377Y007301D01*
X004320Y007201D01*
X004137Y007152D02*
X004158Y007073D01*
X004101Y006973D01*
X004201Y006915D01*
X004222Y006836D01*
X004164Y006736D01*
X004006Y006694D01*
X003906Y006751D01*
X004022Y006952D02*
X004101Y006973D01*
X004137Y007152D02*
X004037Y007210D01*
X003879Y007167D01*
X003821Y007067D01*
X003681Y006860D02*
X003366Y006776D01*
X003539Y007076D01*
X003666Y006602D01*
X003141Y006885D02*
X002910Y006484D01*
X002931Y006405D01*
X002804Y006879D02*
X003120Y006964D01*
X003141Y006885D01*
X004377Y002551D02*
X004535Y002593D01*
X004635Y002535D01*
X004404Y002135D01*
X004504Y002077D01*
X004662Y002119D01*
X004720Y002219D01*
X004635Y002535D01*
X004377Y002551D02*
X004320Y002451D01*
X004404Y002135D01*
X004222Y002086D02*
X004164Y001986D01*
X004006Y001944D01*
X003906Y002001D01*
X004137Y002402D01*
X004222Y002086D01*
X004137Y002402D02*
X004037Y002460D01*
X003879Y002417D01*
X003821Y002317D01*
X003906Y002001D01*
X003681Y002110D02*
X003366Y002026D01*
X003539Y002326D01*
X003666Y001852D01*
X003141Y002135D02*
X002910Y001734D01*
X002931Y001655D01*
X002804Y002129D02*
X003120Y002214D01*
X003141Y002135D01*
D15*
X003460Y002775D02*
X003462Y002796D01*
X003468Y002817D01*
X003477Y002837D01*
X003490Y002854D01*
X003505Y002869D01*
X003523Y002881D01*
X003543Y002889D01*
X003564Y002894D01*
X003585Y002895D01*
X003607Y002892D01*
X003627Y002885D01*
X003646Y002875D01*
X003663Y002862D01*
X003677Y002846D01*
X003688Y002827D01*
X003696Y002807D01*
X003700Y002786D01*
X003700Y002764D01*
X003696Y002743D01*
X003688Y002723D01*
X003677Y002704D01*
X003663Y002688D01*
X003646Y002675D01*
X003627Y002665D01*
X003607Y002658D01*
X003585Y002655D01*
X003564Y002656D01*
X003543Y002661D01*
X003523Y002669D01*
X003505Y002681D01*
X003490Y002696D01*
X003477Y002713D01*
X003468Y002733D01*
X003462Y002754D01*
X003460Y002775D01*
X002460Y001525D02*
X002462Y001546D01*
X002468Y001567D01*
X002477Y001587D01*
X002490Y001604D01*
X002505Y001619D01*
X002523Y001631D01*
X002543Y001639D01*
X002564Y001644D01*
X002585Y001645D01*
X002607Y001642D01*
X002627Y001635D01*
X002646Y001625D01*
X002663Y001612D01*
X002677Y001596D01*
X002688Y001577D01*
X002696Y001557D01*
X002700Y001536D01*
X002700Y001514D01*
X002696Y001493D01*
X002688Y001473D01*
X002677Y001454D01*
X002663Y001438D01*
X002646Y001425D01*
X002627Y001415D01*
X002607Y001408D01*
X002585Y001405D01*
X002564Y001406D01*
X002543Y001411D01*
X002523Y001419D01*
X002505Y001431D01*
X002490Y001446D01*
X002477Y001463D01*
X002468Y001483D01*
X002462Y001504D01*
X002460Y001525D01*
X005460Y001525D02*
X005462Y001546D01*
X005468Y001567D01*
X005477Y001587D01*
X005490Y001604D01*
X005505Y001619D01*
X005523Y001631D01*
X005543Y001639D01*
X005564Y001644D01*
X005585Y001645D01*
X005607Y001642D01*
X005627Y001635D01*
X005646Y001625D01*
X005663Y001612D01*
X005677Y001596D01*
X005688Y001577D01*
X005696Y001557D01*
X005700Y001536D01*
X005700Y001514D01*
X005696Y001493D01*
X005688Y001473D01*
X005677Y001454D01*
X005663Y001438D01*
X005646Y001425D01*
X005627Y001415D01*
X005607Y001408D01*
X005585Y001405D01*
X005564Y001406D01*
X005543Y001411D01*
X005523Y001419D01*
X005505Y001431D01*
X005490Y001446D01*
X005477Y001463D01*
X005468Y001483D01*
X005462Y001504D01*
X005460Y001525D01*
X006460Y002775D02*
X006462Y002796D01*
X006468Y002817D01*
X006477Y002837D01*
X006490Y002854D01*
X006505Y002869D01*
X006523Y002881D01*
X006543Y002889D01*
X006564Y002894D01*
X006585Y002895D01*
X006607Y002892D01*
X006627Y002885D01*
X006646Y002875D01*
X006663Y002862D01*
X006677Y002846D01*
X006688Y002827D01*
X006696Y002807D01*
X006700Y002786D01*
X006700Y002764D01*
X006696Y002743D01*
X006688Y002723D01*
X006677Y002704D01*
X006663Y002688D01*
X006646Y002675D01*
X006627Y002665D01*
X006607Y002658D01*
X006585Y002655D01*
X006564Y002656D01*
X006543Y002661D01*
X006523Y002669D01*
X006505Y002681D01*
X006490Y002696D01*
X006477Y002713D01*
X006468Y002733D01*
X006462Y002754D01*
X006460Y002775D01*
M02*
