G75*
%MOIN*%
%OFA0B0*%
%FSLAX24Y24*%
%IPPOS*%
%LPD*%
%AMOC8*
5,1,8,0,0,1.08239X$1,22.5*
%
%ADD10C,0.0000*%
%ADD11C,0.0060*%
%ADD12C,0.0050*%
%ADD13C,0.0059*%
D10*
X000330Y000150D02*
X000330Y004145D01*
X000643Y004145D01*
X000680Y004147D01*
X000717Y004152D01*
X000753Y004161D01*
X000788Y004174D01*
X000821Y004190D01*
X000853Y004209D01*
X000883Y004231D01*
X000910Y004256D01*
X000935Y004283D01*
X000957Y004313D01*
X000976Y004345D01*
X000992Y004378D01*
X001005Y004413D01*
X001014Y004449D01*
X001019Y004486D01*
X001021Y004523D01*
X001019Y004560D01*
X001014Y004597D01*
X001005Y004633D01*
X000992Y004668D01*
X000976Y004701D01*
X000957Y004733D01*
X000935Y004763D01*
X000910Y004790D01*
X000883Y004815D01*
X000853Y004837D01*
X000821Y004856D01*
X000788Y004872D01*
X000753Y004885D01*
X000717Y004894D01*
X000680Y004899D01*
X000643Y004901D01*
X000643Y004900D02*
X000330Y004900D01*
X000330Y008895D01*
X007322Y008895D01*
X007322Y004900D01*
X007018Y004900D01*
X007018Y004901D02*
X006981Y004899D01*
X006944Y004894D01*
X006908Y004885D01*
X006873Y004872D01*
X006840Y004856D01*
X006808Y004837D01*
X006778Y004815D01*
X006751Y004790D01*
X006726Y004763D01*
X006704Y004733D01*
X006685Y004701D01*
X006669Y004668D01*
X006656Y004633D01*
X006647Y004597D01*
X006642Y004560D01*
X006640Y004523D01*
X006642Y004486D01*
X006647Y004449D01*
X006656Y004413D01*
X006669Y004378D01*
X006685Y004345D01*
X006704Y004313D01*
X006726Y004283D01*
X006751Y004256D01*
X006778Y004231D01*
X006808Y004209D01*
X006840Y004190D01*
X006873Y004174D01*
X006908Y004161D01*
X006944Y004152D01*
X006981Y004147D01*
X007018Y004145D01*
X007322Y004145D01*
X007322Y000150D01*
X000330Y000150D01*
X002018Y004145D02*
X005643Y004145D01*
X005680Y004147D01*
X005717Y004152D01*
X005753Y004161D01*
X005788Y004174D01*
X005821Y004190D01*
X005853Y004209D01*
X005883Y004231D01*
X005910Y004256D01*
X005935Y004283D01*
X005957Y004313D01*
X005976Y004345D01*
X005992Y004378D01*
X006005Y004413D01*
X006014Y004449D01*
X006019Y004486D01*
X006021Y004523D01*
X006019Y004560D01*
X006014Y004597D01*
X006005Y004633D01*
X005992Y004668D01*
X005976Y004701D01*
X005957Y004733D01*
X005935Y004763D01*
X005910Y004790D01*
X005883Y004815D01*
X005853Y004837D01*
X005821Y004856D01*
X005788Y004872D01*
X005753Y004885D01*
X005717Y004894D01*
X005680Y004899D01*
X005643Y004901D01*
X005643Y004900D02*
X002018Y004900D01*
X002018Y004901D02*
X001981Y004899D01*
X001944Y004894D01*
X001908Y004885D01*
X001873Y004872D01*
X001840Y004856D01*
X001808Y004837D01*
X001778Y004815D01*
X001751Y004790D01*
X001726Y004763D01*
X001704Y004733D01*
X001685Y004701D01*
X001669Y004668D01*
X001656Y004633D01*
X001647Y004597D01*
X001642Y004560D01*
X001640Y004523D01*
X001642Y004486D01*
X001647Y004449D01*
X001656Y004413D01*
X001669Y004378D01*
X001685Y004345D01*
X001704Y004313D01*
X001726Y004283D01*
X001751Y004256D01*
X001778Y004231D01*
X001808Y004209D01*
X001840Y004190D01*
X001873Y004174D01*
X001908Y004161D01*
X001944Y004152D01*
X001981Y004147D01*
X002018Y004145D01*
X001439Y004275D02*
X001441Y004293D01*
X001447Y004309D01*
X001456Y004324D01*
X001469Y004337D01*
X001484Y004346D01*
X001500Y004352D01*
X001518Y004354D01*
X001536Y004352D01*
X001552Y004346D01*
X001567Y004337D01*
X001580Y004324D01*
X001589Y004309D01*
X001595Y004293D01*
X001597Y004275D01*
X001595Y004257D01*
X001589Y004241D01*
X001580Y004226D01*
X001567Y004213D01*
X001552Y004204D01*
X001536Y004198D01*
X001518Y004196D01*
X001500Y004198D01*
X001484Y004204D01*
X001469Y004213D01*
X001456Y004226D01*
X001447Y004241D01*
X001441Y004257D01*
X001439Y004275D01*
X001064Y004275D02*
X001066Y004293D01*
X001072Y004309D01*
X001081Y004324D01*
X001094Y004337D01*
X001109Y004346D01*
X001125Y004352D01*
X001143Y004354D01*
X001161Y004352D01*
X001177Y004346D01*
X001192Y004337D01*
X001205Y004324D01*
X001214Y004309D01*
X001220Y004293D01*
X001222Y004275D01*
X001220Y004257D01*
X001214Y004241D01*
X001205Y004226D01*
X001192Y004213D01*
X001177Y004204D01*
X001161Y004198D01*
X001143Y004196D01*
X001125Y004198D01*
X001109Y004204D01*
X001094Y004213D01*
X001081Y004226D01*
X001072Y004241D01*
X001066Y004257D01*
X001064Y004275D01*
X001064Y004775D02*
X001066Y004793D01*
X001072Y004809D01*
X001081Y004824D01*
X001094Y004837D01*
X001109Y004846D01*
X001125Y004852D01*
X001143Y004854D01*
X001161Y004852D01*
X001177Y004846D01*
X001192Y004837D01*
X001205Y004824D01*
X001214Y004809D01*
X001220Y004793D01*
X001222Y004775D01*
X001220Y004757D01*
X001214Y004741D01*
X001205Y004726D01*
X001192Y004713D01*
X001177Y004704D01*
X001161Y004698D01*
X001143Y004696D01*
X001125Y004698D01*
X001109Y004704D01*
X001094Y004713D01*
X001081Y004726D01*
X001072Y004741D01*
X001066Y004757D01*
X001064Y004775D01*
X001439Y004775D02*
X001441Y004793D01*
X001447Y004809D01*
X001456Y004824D01*
X001469Y004837D01*
X001484Y004846D01*
X001500Y004852D01*
X001518Y004854D01*
X001536Y004852D01*
X001552Y004846D01*
X001567Y004837D01*
X001580Y004824D01*
X001589Y004809D01*
X001595Y004793D01*
X001597Y004775D01*
X001595Y004757D01*
X001589Y004741D01*
X001580Y004726D01*
X001567Y004713D01*
X001552Y004704D01*
X001536Y004698D01*
X001518Y004696D01*
X001500Y004698D01*
X001484Y004704D01*
X001469Y004713D01*
X001456Y004726D01*
X001447Y004741D01*
X001441Y004757D01*
X001439Y004775D01*
X006064Y004775D02*
X006066Y004793D01*
X006072Y004809D01*
X006081Y004824D01*
X006094Y004837D01*
X006109Y004846D01*
X006125Y004852D01*
X006143Y004854D01*
X006161Y004852D01*
X006177Y004846D01*
X006192Y004837D01*
X006205Y004824D01*
X006214Y004809D01*
X006220Y004793D01*
X006222Y004775D01*
X006220Y004757D01*
X006214Y004741D01*
X006205Y004726D01*
X006192Y004713D01*
X006177Y004704D01*
X006161Y004698D01*
X006143Y004696D01*
X006125Y004698D01*
X006109Y004704D01*
X006094Y004713D01*
X006081Y004726D01*
X006072Y004741D01*
X006066Y004757D01*
X006064Y004775D01*
X006064Y004275D02*
X006066Y004293D01*
X006072Y004309D01*
X006081Y004324D01*
X006094Y004337D01*
X006109Y004346D01*
X006125Y004352D01*
X006143Y004354D01*
X006161Y004352D01*
X006177Y004346D01*
X006192Y004337D01*
X006205Y004324D01*
X006214Y004309D01*
X006220Y004293D01*
X006222Y004275D01*
X006220Y004257D01*
X006214Y004241D01*
X006205Y004226D01*
X006192Y004213D01*
X006177Y004204D01*
X006161Y004198D01*
X006143Y004196D01*
X006125Y004198D01*
X006109Y004204D01*
X006094Y004213D01*
X006081Y004226D01*
X006072Y004241D01*
X006066Y004257D01*
X006064Y004275D01*
X006439Y004275D02*
X006441Y004293D01*
X006447Y004309D01*
X006456Y004324D01*
X006469Y004337D01*
X006484Y004346D01*
X006500Y004352D01*
X006518Y004354D01*
X006536Y004352D01*
X006552Y004346D01*
X006567Y004337D01*
X006580Y004324D01*
X006589Y004309D01*
X006595Y004293D01*
X006597Y004275D01*
X006595Y004257D01*
X006589Y004241D01*
X006580Y004226D01*
X006567Y004213D01*
X006552Y004204D01*
X006536Y004198D01*
X006518Y004196D01*
X006500Y004198D01*
X006484Y004204D01*
X006469Y004213D01*
X006456Y004226D01*
X006447Y004241D01*
X006441Y004257D01*
X006439Y004275D01*
X006439Y004775D02*
X006441Y004793D01*
X006447Y004809D01*
X006456Y004824D01*
X006469Y004837D01*
X006484Y004846D01*
X006500Y004852D01*
X006518Y004854D01*
X006536Y004852D01*
X006552Y004846D01*
X006567Y004837D01*
X006580Y004824D01*
X006589Y004809D01*
X006595Y004793D01*
X006597Y004775D01*
X006595Y004757D01*
X006589Y004741D01*
X006580Y004726D01*
X006567Y004713D01*
X006552Y004704D01*
X006536Y004698D01*
X006518Y004696D01*
X006500Y004698D01*
X006484Y004704D01*
X006469Y004713D01*
X006456Y004726D01*
X006447Y004741D01*
X006441Y004757D01*
X006439Y004775D01*
D11*
X006173Y005927D02*
X006117Y005927D01*
X006060Y005983D01*
X006060Y006267D01*
X006230Y006267D01*
X006287Y006210D01*
X006287Y006097D01*
X006230Y006040D01*
X006060Y006040D01*
X005919Y006040D02*
X005805Y006040D01*
X005862Y006040D02*
X005862Y006267D01*
X005919Y006267D01*
X005862Y006380D02*
X005862Y006437D01*
X005673Y006210D02*
X005673Y006097D01*
X005616Y006040D01*
X005446Y006040D01*
X005305Y006040D02*
X005135Y006040D01*
X005078Y006097D01*
X005078Y006210D01*
X005135Y006267D01*
X005305Y006267D01*
X005305Y006380D02*
X005305Y006040D01*
X005446Y006267D02*
X005616Y006267D01*
X005673Y006210D01*
X006428Y006210D02*
X006428Y006097D01*
X006485Y006040D01*
X006598Y006040D01*
X006655Y006097D01*
X006655Y006210D01*
X006598Y006267D01*
X006485Y006267D01*
X006428Y006210D01*
X006797Y006040D02*
X007024Y006040D01*
X007024Y006380D01*
X004936Y006380D02*
X004880Y006380D01*
X004880Y006040D01*
X004936Y006040D02*
X004823Y006040D01*
X004691Y006097D02*
X004634Y006040D01*
X004521Y006040D01*
X004464Y006097D01*
X004464Y006210D01*
X004521Y006267D01*
X004634Y006267D01*
X004691Y006210D01*
X004691Y006097D01*
X004323Y006097D02*
X004266Y006040D01*
X004096Y006040D01*
X003954Y006040D02*
X003954Y006380D01*
X004096Y006267D02*
X004266Y006267D01*
X004323Y006210D01*
X004323Y006097D01*
X003954Y006153D02*
X003784Y006267D01*
X003954Y006153D02*
X003784Y006040D01*
X003647Y006040D02*
X003591Y006040D01*
X003591Y006097D01*
X003647Y006097D01*
X003647Y006040D01*
X003463Y006040D02*
X003463Y006267D01*
X003406Y006267D01*
X003350Y006210D01*
X003293Y006267D01*
X003236Y006210D01*
X003236Y006040D01*
X003350Y006040D02*
X003350Y006210D01*
X003095Y006210D02*
X003095Y006097D01*
X003038Y006040D01*
X002925Y006040D01*
X002868Y006153D02*
X003095Y006153D01*
X003095Y006210D02*
X003038Y006267D01*
X002925Y006267D01*
X002868Y006210D01*
X002868Y006153D01*
X005862Y001687D02*
X005862Y001630D01*
X005862Y001517D02*
X005862Y001290D01*
X005919Y001290D02*
X005805Y001290D01*
X005673Y001347D02*
X005616Y001290D01*
X005446Y001290D01*
X005305Y001290D02*
X005135Y001290D01*
X005078Y001347D01*
X005078Y001460D01*
X005135Y001517D01*
X005305Y001517D01*
X005305Y001630D02*
X005305Y001290D01*
X005446Y001517D02*
X005616Y001517D01*
X005673Y001460D01*
X005673Y001347D01*
X005862Y001517D02*
X005919Y001517D01*
X006060Y001517D02*
X006230Y001517D01*
X006287Y001460D01*
X006287Y001347D01*
X006230Y001290D01*
X006060Y001290D01*
X006060Y001233D02*
X006060Y001517D01*
X006060Y001233D02*
X006117Y001177D01*
X006173Y001177D01*
X006428Y001347D02*
X006428Y001460D01*
X006485Y001517D01*
X006598Y001517D01*
X006655Y001460D01*
X006655Y001347D01*
X006598Y001290D01*
X006485Y001290D01*
X006428Y001347D01*
X006797Y001290D02*
X007024Y001290D01*
X007024Y001630D01*
X004936Y001630D02*
X004880Y001630D01*
X004880Y001290D01*
X004936Y001290D02*
X004823Y001290D01*
X004691Y001347D02*
X004634Y001290D01*
X004521Y001290D01*
X004464Y001347D01*
X004464Y001460D01*
X004521Y001517D01*
X004634Y001517D01*
X004691Y001460D01*
X004691Y001347D01*
X004323Y001347D02*
X004266Y001290D01*
X004096Y001290D01*
X003954Y001290D02*
X003954Y001630D01*
X004096Y001517D02*
X004266Y001517D01*
X004323Y001460D01*
X004323Y001347D01*
X003954Y001403D02*
X003784Y001517D01*
X003954Y001403D02*
X003784Y001290D01*
X003647Y001290D02*
X003591Y001290D01*
X003591Y001347D01*
X003647Y001347D01*
X003647Y001290D01*
X003463Y001290D02*
X003463Y001517D01*
X003406Y001517D01*
X003350Y001460D01*
X003293Y001517D01*
X003236Y001460D01*
X003236Y001290D01*
X003350Y001290D02*
X003350Y001460D01*
X003095Y001460D02*
X003095Y001347D01*
X003038Y001290D01*
X002925Y001290D01*
X002868Y001403D02*
X003095Y001403D01*
X003095Y001460D02*
X003038Y001517D01*
X002925Y001517D01*
X002868Y001460D01*
X002868Y001403D01*
D12*
X002830Y002088D02*
X002830Y002463D01*
X002580Y002463D02*
X002580Y002088D01*
X002330Y002463D02*
X002080Y002463D01*
X001830Y002463D02*
X001830Y002088D01*
X001205Y002025D02*
X001205Y002275D01*
X000705Y002275D02*
X000705Y002025D01*
X003080Y002088D02*
X003330Y002088D01*
X003580Y002088D02*
X003580Y002463D01*
X004205Y002463D02*
X004205Y002088D01*
X004455Y002088D02*
X004705Y002088D01*
X004955Y002088D02*
X004955Y002463D01*
X005205Y002463D02*
X005205Y002088D01*
X005455Y002088D02*
X005705Y002088D01*
X005955Y002088D02*
X005955Y002150D01*
X005955Y002400D02*
X005955Y002463D01*
X005955Y006838D02*
X005955Y006900D01*
X005955Y007150D02*
X005955Y007213D01*
X005705Y006838D02*
X005455Y006838D01*
X005205Y006838D02*
X005205Y007213D01*
X004955Y007213D02*
X004955Y006838D01*
X004705Y006838D02*
X004455Y006838D01*
X004205Y006838D02*
X004205Y007213D01*
X003580Y007213D02*
X003580Y006838D01*
X003330Y006838D02*
X003080Y006838D01*
X002830Y006838D02*
X002830Y007213D01*
X002580Y007213D02*
X002580Y006838D01*
X002330Y007213D02*
X002080Y007213D01*
X001830Y007213D02*
X001830Y006838D01*
X001205Y006775D02*
X001205Y007025D01*
X000705Y007025D02*
X000705Y006775D01*
D13*
X006044Y006953D02*
X006234Y006934D01*
X006255Y006870D01*
X006286Y006810D01*
X006165Y006661D01*
X006266Y006560D01*
X006415Y006681D01*
X006475Y006650D01*
X006559Y006854D01*
X006522Y006876D01*
X006490Y006905D01*
X006466Y006941D01*
X006451Y006982D01*
X006445Y007025D01*
X006451Y007069D01*
X006466Y007110D01*
X006491Y007147D01*
X006524Y007176D01*
X006563Y007197D01*
X006606Y007208D01*
X006650Y007208D01*
X006693Y007198D01*
X006732Y007178D01*
X006766Y007150D01*
X006792Y007114D01*
X006808Y007073D01*
X006814Y007029D01*
X006810Y006985D01*
X006795Y006943D01*
X006771Y006906D01*
X006739Y006876D01*
X006701Y006854D01*
X006785Y006650D01*
X006845Y006681D01*
X006994Y006560D01*
X007095Y006661D01*
X006974Y006810D01*
X007005Y006870D01*
X007026Y006934D01*
X007216Y006953D01*
X007216Y007097D01*
X007026Y007116D01*
X007005Y007180D01*
X006974Y007240D01*
X007095Y007389D01*
X006994Y007490D01*
X006845Y007369D01*
X006785Y007400D01*
X006721Y007421D01*
X006702Y007611D01*
X006558Y007611D01*
X006539Y007421D01*
X006475Y007400D01*
X006415Y007369D01*
X006266Y007490D01*
X006165Y007389D01*
X006286Y007240D01*
X006255Y007180D01*
X006234Y007116D01*
X006044Y007097D01*
X006044Y006953D01*
X006044Y006999D02*
X006448Y006999D01*
X006449Y007057D02*
X006044Y007057D01*
X006157Y006942D02*
X006465Y006942D01*
X006513Y006884D02*
X006250Y006884D01*
X006277Y006826D02*
X006548Y006826D01*
X006524Y006769D02*
X006252Y006769D01*
X006205Y006711D02*
X006500Y006711D01*
X006476Y006654D02*
X006467Y006654D01*
X006382Y006654D02*
X006172Y006654D01*
X006230Y006596D02*
X006311Y006596D01*
X006736Y006769D02*
X007008Y006769D01*
X006983Y006826D02*
X006712Y006826D01*
X006747Y006884D02*
X007010Y006884D01*
X007103Y006942D02*
X006794Y006942D01*
X006812Y006999D02*
X007216Y006999D01*
X007216Y007057D02*
X006811Y007057D01*
X006791Y007114D02*
X007047Y007114D01*
X007008Y007172D02*
X006740Y007172D01*
X006519Y007172D02*
X006252Y007172D01*
X006280Y007229D02*
X006980Y007229D01*
X007012Y007287D02*
X006248Y007287D01*
X006201Y007344D02*
X007059Y007344D01*
X007082Y007402D02*
X006885Y007402D01*
X006956Y007460D02*
X007024Y007460D01*
X006780Y007402D02*
X006480Y007402D01*
X006543Y007460D02*
X006717Y007460D01*
X006712Y007517D02*
X006548Y007517D01*
X006554Y007575D02*
X006706Y007575D01*
X006375Y007402D02*
X006178Y007402D01*
X006236Y007460D02*
X006304Y007460D01*
X006213Y007114D02*
X006469Y007114D01*
X006760Y006711D02*
X007055Y006711D01*
X007088Y006654D02*
X006878Y006654D01*
X006793Y006654D02*
X006784Y006654D01*
X006949Y006596D02*
X007030Y006596D01*
X006702Y002861D02*
X006558Y002861D01*
X006539Y002671D01*
X006475Y002650D01*
X006415Y002619D01*
X006266Y002740D01*
X006267Y002740D01*
X006266Y002740D02*
X006165Y002639D01*
X006286Y002490D01*
X006255Y002430D01*
X006234Y002366D01*
X006044Y002347D01*
X006044Y002203D01*
X006234Y002184D01*
X006255Y002120D01*
X006286Y002060D01*
X006165Y001911D01*
X006266Y001810D01*
X006415Y001931D01*
X006475Y001900D01*
X006559Y002104D01*
X006522Y002126D01*
X006490Y002155D01*
X006466Y002191D01*
X006451Y002232D01*
X006445Y002275D01*
X006451Y002319D01*
X006466Y002360D01*
X006491Y002397D01*
X006524Y002426D01*
X006563Y002447D01*
X006606Y002458D01*
X006650Y002458D01*
X006693Y002448D01*
X006732Y002428D01*
X006766Y002400D01*
X006792Y002364D01*
X006808Y002323D01*
X006814Y002279D01*
X006810Y002235D01*
X006795Y002193D01*
X006771Y002156D01*
X006739Y002126D01*
X006701Y002104D01*
X006785Y001900D01*
X006845Y001931D01*
X006994Y001810D01*
X007095Y001911D01*
X006974Y002060D01*
X007005Y002120D01*
X007026Y002184D01*
X007216Y002203D01*
X007216Y002347D01*
X007026Y002366D01*
X007005Y002430D01*
X006974Y002490D01*
X007095Y002639D01*
X006994Y002740D01*
X006993Y002740D01*
X006994Y002740D02*
X006845Y002619D01*
X006785Y002650D01*
X006721Y002671D01*
X006702Y002861D01*
X006703Y002855D02*
X006557Y002855D01*
X006552Y002798D02*
X006708Y002798D01*
X006714Y002740D02*
X006546Y002740D01*
X006540Y002682D02*
X006720Y002682D01*
X006834Y002625D02*
X006426Y002625D01*
X006408Y002625D02*
X006176Y002625D01*
X006208Y002682D02*
X006337Y002682D01*
X006223Y002567D02*
X007037Y002567D01*
X006990Y002510D02*
X006270Y002510D01*
X006266Y002452D02*
X006584Y002452D01*
X006490Y002395D02*
X006243Y002395D01*
X006044Y002337D02*
X006458Y002337D01*
X006446Y002280D02*
X006044Y002280D01*
X006044Y002222D02*
X006454Y002222D01*
X006483Y002164D02*
X006241Y002164D01*
X006261Y002107D02*
X006555Y002107D01*
X006537Y002049D02*
X006277Y002049D01*
X006230Y001992D02*
X006513Y001992D01*
X006489Y001934D02*
X006183Y001934D01*
X006199Y001877D02*
X006349Y001877D01*
X006278Y001819D02*
X006257Y001819D01*
X006723Y002049D02*
X006983Y002049D01*
X006999Y002107D02*
X006705Y002107D01*
X006777Y002164D02*
X007019Y002164D01*
X007030Y001992D02*
X006747Y001992D01*
X006771Y001934D02*
X007077Y001934D01*
X007061Y001877D02*
X006911Y001877D01*
X006982Y001819D02*
X007003Y001819D01*
X006806Y002222D02*
X007216Y002222D01*
X007216Y002280D02*
X006814Y002280D01*
X006802Y002337D02*
X007216Y002337D01*
X007017Y002395D02*
X006770Y002395D01*
X006677Y002452D02*
X006994Y002452D01*
X007084Y002625D02*
X006852Y002625D01*
X006923Y002682D02*
X007052Y002682D01*
M02*
