G75*
%MOIN*%
%OFA0B0*%
%FSLAX24Y24*%
%IPPOS*%
%LPD*%
%AMOC8*
5,1,8,0,0,1.08239X$1,22.5*
%
%ADD10C,0.0000*%
%ADD11R,0.0425X0.0413*%
%ADD12R,0.0157X0.0276*%
%ADD13OC8,0.0700*%
%ADD14C,0.0100*%
%ADD15C,0.0260*%
%ADD16C,0.0120*%
%ADD17C,0.0160*%
D10*
X000330Y000150D02*
X000330Y004145D01*
X000643Y004145D01*
X000680Y004147D01*
X000717Y004152D01*
X000753Y004161D01*
X000788Y004174D01*
X000821Y004190D01*
X000853Y004209D01*
X000883Y004231D01*
X000910Y004256D01*
X000935Y004283D01*
X000957Y004313D01*
X000976Y004345D01*
X000992Y004378D01*
X001005Y004413D01*
X001014Y004449D01*
X001019Y004486D01*
X001021Y004523D01*
X001019Y004560D01*
X001014Y004597D01*
X001005Y004633D01*
X000992Y004668D01*
X000976Y004701D01*
X000957Y004733D01*
X000935Y004763D01*
X000910Y004790D01*
X000883Y004815D01*
X000853Y004837D01*
X000821Y004856D01*
X000788Y004872D01*
X000753Y004885D01*
X000717Y004894D01*
X000680Y004899D01*
X000643Y004901D01*
X000643Y004900D02*
X000330Y004900D01*
X000330Y008895D01*
X007322Y008895D01*
X007322Y004900D01*
X007018Y004900D01*
X007018Y004901D02*
X006981Y004899D01*
X006944Y004894D01*
X006908Y004885D01*
X006873Y004872D01*
X006840Y004856D01*
X006808Y004837D01*
X006778Y004815D01*
X006751Y004790D01*
X006726Y004763D01*
X006704Y004733D01*
X006685Y004701D01*
X006669Y004668D01*
X006656Y004633D01*
X006647Y004597D01*
X006642Y004560D01*
X006640Y004523D01*
X006642Y004486D01*
X006647Y004449D01*
X006656Y004413D01*
X006669Y004378D01*
X006685Y004345D01*
X006704Y004313D01*
X006726Y004283D01*
X006751Y004256D01*
X006778Y004231D01*
X006808Y004209D01*
X006840Y004190D01*
X006873Y004174D01*
X006908Y004161D01*
X006944Y004152D01*
X006981Y004147D01*
X007018Y004145D01*
X007322Y004145D01*
X007322Y000150D01*
X000330Y000150D01*
X002018Y004145D02*
X005643Y004145D01*
X005680Y004147D01*
X005717Y004152D01*
X005753Y004161D01*
X005788Y004174D01*
X005821Y004190D01*
X005853Y004209D01*
X005883Y004231D01*
X005910Y004256D01*
X005935Y004283D01*
X005957Y004313D01*
X005976Y004345D01*
X005992Y004378D01*
X006005Y004413D01*
X006014Y004449D01*
X006019Y004486D01*
X006021Y004523D01*
X006019Y004560D01*
X006014Y004597D01*
X006005Y004633D01*
X005992Y004668D01*
X005976Y004701D01*
X005957Y004733D01*
X005935Y004763D01*
X005910Y004790D01*
X005883Y004815D01*
X005853Y004837D01*
X005821Y004856D01*
X005788Y004872D01*
X005753Y004885D01*
X005717Y004894D01*
X005680Y004899D01*
X005643Y004901D01*
X005643Y004900D02*
X002018Y004900D01*
X002018Y004901D02*
X001981Y004899D01*
X001944Y004894D01*
X001908Y004885D01*
X001873Y004872D01*
X001840Y004856D01*
X001808Y004837D01*
X001778Y004815D01*
X001751Y004790D01*
X001726Y004763D01*
X001704Y004733D01*
X001685Y004701D01*
X001669Y004668D01*
X001656Y004633D01*
X001647Y004597D01*
X001642Y004560D01*
X001640Y004523D01*
X001642Y004486D01*
X001647Y004449D01*
X001656Y004413D01*
X001669Y004378D01*
X001685Y004345D01*
X001704Y004313D01*
X001726Y004283D01*
X001751Y004256D01*
X001778Y004231D01*
X001808Y004209D01*
X001840Y004190D01*
X001873Y004174D01*
X001908Y004161D01*
X001944Y004152D01*
X001981Y004147D01*
X002018Y004145D01*
X001439Y004275D02*
X001441Y004293D01*
X001447Y004309D01*
X001456Y004324D01*
X001469Y004337D01*
X001484Y004346D01*
X001500Y004352D01*
X001518Y004354D01*
X001536Y004352D01*
X001552Y004346D01*
X001567Y004337D01*
X001580Y004324D01*
X001589Y004309D01*
X001595Y004293D01*
X001597Y004275D01*
X001595Y004257D01*
X001589Y004241D01*
X001580Y004226D01*
X001567Y004213D01*
X001552Y004204D01*
X001536Y004198D01*
X001518Y004196D01*
X001500Y004198D01*
X001484Y004204D01*
X001469Y004213D01*
X001456Y004226D01*
X001447Y004241D01*
X001441Y004257D01*
X001439Y004275D01*
X001064Y004275D02*
X001066Y004293D01*
X001072Y004309D01*
X001081Y004324D01*
X001094Y004337D01*
X001109Y004346D01*
X001125Y004352D01*
X001143Y004354D01*
X001161Y004352D01*
X001177Y004346D01*
X001192Y004337D01*
X001205Y004324D01*
X001214Y004309D01*
X001220Y004293D01*
X001222Y004275D01*
X001220Y004257D01*
X001214Y004241D01*
X001205Y004226D01*
X001192Y004213D01*
X001177Y004204D01*
X001161Y004198D01*
X001143Y004196D01*
X001125Y004198D01*
X001109Y004204D01*
X001094Y004213D01*
X001081Y004226D01*
X001072Y004241D01*
X001066Y004257D01*
X001064Y004275D01*
X001064Y004775D02*
X001066Y004793D01*
X001072Y004809D01*
X001081Y004824D01*
X001094Y004837D01*
X001109Y004846D01*
X001125Y004852D01*
X001143Y004854D01*
X001161Y004852D01*
X001177Y004846D01*
X001192Y004837D01*
X001205Y004824D01*
X001214Y004809D01*
X001220Y004793D01*
X001222Y004775D01*
X001220Y004757D01*
X001214Y004741D01*
X001205Y004726D01*
X001192Y004713D01*
X001177Y004704D01*
X001161Y004698D01*
X001143Y004696D01*
X001125Y004698D01*
X001109Y004704D01*
X001094Y004713D01*
X001081Y004726D01*
X001072Y004741D01*
X001066Y004757D01*
X001064Y004775D01*
X001439Y004775D02*
X001441Y004793D01*
X001447Y004809D01*
X001456Y004824D01*
X001469Y004837D01*
X001484Y004846D01*
X001500Y004852D01*
X001518Y004854D01*
X001536Y004852D01*
X001552Y004846D01*
X001567Y004837D01*
X001580Y004824D01*
X001589Y004809D01*
X001595Y004793D01*
X001597Y004775D01*
X001595Y004757D01*
X001589Y004741D01*
X001580Y004726D01*
X001567Y004713D01*
X001552Y004704D01*
X001536Y004698D01*
X001518Y004696D01*
X001500Y004698D01*
X001484Y004704D01*
X001469Y004713D01*
X001456Y004726D01*
X001447Y004741D01*
X001441Y004757D01*
X001439Y004775D01*
X006064Y004775D02*
X006066Y004793D01*
X006072Y004809D01*
X006081Y004824D01*
X006094Y004837D01*
X006109Y004846D01*
X006125Y004852D01*
X006143Y004854D01*
X006161Y004852D01*
X006177Y004846D01*
X006192Y004837D01*
X006205Y004824D01*
X006214Y004809D01*
X006220Y004793D01*
X006222Y004775D01*
X006220Y004757D01*
X006214Y004741D01*
X006205Y004726D01*
X006192Y004713D01*
X006177Y004704D01*
X006161Y004698D01*
X006143Y004696D01*
X006125Y004698D01*
X006109Y004704D01*
X006094Y004713D01*
X006081Y004726D01*
X006072Y004741D01*
X006066Y004757D01*
X006064Y004775D01*
X006064Y004275D02*
X006066Y004293D01*
X006072Y004309D01*
X006081Y004324D01*
X006094Y004337D01*
X006109Y004346D01*
X006125Y004352D01*
X006143Y004354D01*
X006161Y004352D01*
X006177Y004346D01*
X006192Y004337D01*
X006205Y004324D01*
X006214Y004309D01*
X006220Y004293D01*
X006222Y004275D01*
X006220Y004257D01*
X006214Y004241D01*
X006205Y004226D01*
X006192Y004213D01*
X006177Y004204D01*
X006161Y004198D01*
X006143Y004196D01*
X006125Y004198D01*
X006109Y004204D01*
X006094Y004213D01*
X006081Y004226D01*
X006072Y004241D01*
X006066Y004257D01*
X006064Y004275D01*
X006439Y004275D02*
X006441Y004293D01*
X006447Y004309D01*
X006456Y004324D01*
X006469Y004337D01*
X006484Y004346D01*
X006500Y004352D01*
X006518Y004354D01*
X006536Y004352D01*
X006552Y004346D01*
X006567Y004337D01*
X006580Y004324D01*
X006589Y004309D01*
X006595Y004293D01*
X006597Y004275D01*
X006595Y004257D01*
X006589Y004241D01*
X006580Y004226D01*
X006567Y004213D01*
X006552Y004204D01*
X006536Y004198D01*
X006518Y004196D01*
X006500Y004198D01*
X006484Y004204D01*
X006469Y004213D01*
X006456Y004226D01*
X006447Y004241D01*
X006441Y004257D01*
X006439Y004275D01*
X006439Y004775D02*
X006441Y004793D01*
X006447Y004809D01*
X006456Y004824D01*
X006469Y004837D01*
X006484Y004846D01*
X006500Y004852D01*
X006518Y004854D01*
X006536Y004852D01*
X006552Y004846D01*
X006567Y004837D01*
X006580Y004824D01*
X006589Y004809D01*
X006595Y004793D01*
X006597Y004775D01*
X006595Y004757D01*
X006589Y004741D01*
X006580Y004726D01*
X006567Y004713D01*
X006552Y004704D01*
X006536Y004698D01*
X006518Y004696D01*
X006500Y004698D01*
X006484Y004704D01*
X006469Y004713D01*
X006456Y004726D01*
X006447Y004741D01*
X006441Y004757D01*
X006439Y004775D01*
D11*
X000955Y006556D03*
X000955Y007244D03*
X000955Y002494D03*
X000955Y001806D03*
D12*
X001949Y001940D03*
X002205Y001940D03*
X002461Y001940D03*
X002949Y001940D03*
X003461Y001940D03*
X003461Y002610D03*
X003205Y002610D03*
X002949Y002610D03*
X002461Y002610D03*
X001949Y002610D03*
X004324Y002610D03*
X004580Y002610D03*
X004836Y002610D03*
X005324Y002610D03*
X005580Y002610D03*
X005836Y002610D03*
X005836Y001940D03*
X005324Y001940D03*
X004836Y001940D03*
X004324Y001940D03*
X004324Y006690D03*
X004836Y006690D03*
X005324Y006690D03*
X005836Y006690D03*
X005836Y007360D03*
X005580Y007360D03*
X005324Y007360D03*
X004836Y007360D03*
X004580Y007360D03*
X004324Y007360D03*
X003461Y007360D03*
X003205Y007360D03*
X002949Y007360D03*
X002461Y007360D03*
X001949Y007360D03*
X001949Y006690D03*
X002205Y006690D03*
X002461Y006690D03*
X002949Y006690D03*
X003461Y006690D03*
D13*
X003830Y005400D03*
X004830Y005400D03*
X005830Y005400D03*
X006830Y005400D03*
X006830Y003650D03*
X005830Y003650D03*
X004830Y003650D03*
X003830Y003650D03*
X002830Y003650D03*
X001830Y003650D03*
X000830Y003650D03*
X000830Y005400D03*
X001830Y005400D03*
X002830Y005400D03*
X002830Y008400D03*
X001830Y008400D03*
X000830Y008400D03*
X003830Y008400D03*
X004830Y008400D03*
X005830Y008400D03*
X006830Y008400D03*
X006830Y000650D03*
X005830Y000650D03*
X004830Y000650D03*
X003830Y000650D03*
X002830Y000650D03*
X001830Y000650D03*
X000830Y000650D03*
D14*
X001116Y000300D02*
X001280Y000464D01*
X001280Y000836D01*
X001016Y001100D01*
X000644Y001100D01*
X000480Y000936D01*
X000480Y003364D01*
X000644Y003200D01*
X000650Y003200D01*
X000650Y002950D01*
X000775Y002825D01*
X000775Y002801D01*
X000701Y002801D01*
X000642Y002743D01*
X000642Y002246D01*
X000701Y002188D01*
X001209Y002188D01*
X001268Y002246D01*
X001268Y002740D01*
X001646Y002740D01*
X001740Y002834D01*
X001771Y002865D01*
X002139Y002865D01*
X002282Y002722D01*
X002282Y002430D01*
X002341Y002372D01*
X002472Y002372D01*
X002770Y002074D01*
X002770Y001761D01*
X002789Y001742D01*
X002789Y001641D01*
X002675Y001755D01*
X002634Y001755D01*
X002640Y001761D01*
X002640Y002120D01*
X002581Y002178D01*
X002341Y002178D01*
X002333Y002170D01*
X002325Y002178D01*
X002140Y002178D01*
X002120Y002198D01*
X002086Y002218D01*
X002048Y002228D01*
X001949Y002228D01*
X001851Y002228D01*
X001812Y002218D01*
X001778Y002198D01*
X001750Y002170D01*
X001731Y002136D01*
X001720Y002098D01*
X001720Y001940D01*
X001720Y001783D01*
X001731Y001745D01*
X001750Y001710D01*
X001778Y001683D01*
X001812Y001663D01*
X001851Y001653D01*
X001949Y001653D01*
X001949Y001940D01*
X001949Y001940D01*
X001949Y001653D01*
X002045Y001653D01*
X002045Y001466D01*
X001764Y001185D01*
X001679Y001100D01*
X001644Y001100D01*
X001380Y000836D01*
X001380Y000464D01*
X001544Y000300D01*
X001116Y000300D01*
X001163Y000347D02*
X001497Y000347D01*
X001398Y000446D02*
X001262Y000446D01*
X001280Y000544D02*
X001380Y000544D01*
X001380Y000643D02*
X001280Y000643D01*
X001280Y000741D02*
X001380Y000741D01*
X001383Y000840D02*
X001277Y000840D01*
X001178Y000938D02*
X001482Y000938D01*
X001580Y001037D02*
X001080Y001037D01*
X001005Y001449D02*
X001187Y001449D01*
X001225Y001459D01*
X001260Y001479D01*
X001288Y001507D01*
X001307Y001541D01*
X001318Y001579D01*
X001318Y001756D01*
X001005Y001756D01*
X001005Y001856D01*
X000905Y001856D01*
X000905Y002162D01*
X000723Y002162D01*
X000685Y002152D01*
X000650Y002132D01*
X000622Y002104D01*
X000603Y002070D01*
X000592Y002032D01*
X000592Y001856D01*
X000905Y001856D01*
X000905Y001756D01*
X000592Y001756D01*
X000592Y001579D01*
X000603Y001541D01*
X000622Y001507D01*
X000650Y001479D01*
X000685Y001459D01*
X000723Y001449D01*
X000905Y001449D01*
X000905Y001756D01*
X001005Y001756D01*
X001005Y001449D01*
X001005Y001529D02*
X000905Y001529D01*
X000905Y001628D02*
X001005Y001628D01*
X001005Y001726D02*
X000905Y001726D01*
X000905Y001825D02*
X000480Y001825D01*
X000480Y001923D02*
X000592Y001923D01*
X000592Y002022D02*
X000480Y002022D01*
X000480Y002120D02*
X000638Y002120D01*
X000670Y002219D02*
X000480Y002219D01*
X000480Y002317D02*
X000642Y002317D01*
X000642Y002416D02*
X000480Y002416D01*
X000480Y002514D02*
X000642Y002514D01*
X000642Y002613D02*
X000480Y002613D01*
X000480Y002711D02*
X000642Y002711D01*
X000775Y002810D02*
X000480Y002810D01*
X000480Y002908D02*
X000692Y002908D01*
X000650Y003007D02*
X000480Y003007D01*
X000480Y003105D02*
X000650Y003105D01*
X000640Y003204D02*
X000480Y003204D01*
X000480Y003302D02*
X000542Y003302D01*
X001010Y003200D02*
X001010Y003100D01*
X001030Y003080D01*
X001050Y003060D01*
X001514Y003060D01*
X001639Y003185D01*
X001771Y003185D01*
X002194Y003185D01*
X002098Y003281D01*
X002016Y003200D01*
X001644Y003200D01*
X001380Y003464D01*
X001380Y003836D01*
X001544Y004000D01*
X001116Y004000D01*
X001280Y003836D01*
X001280Y003464D01*
X001016Y003200D01*
X001010Y003200D01*
X001020Y003204D02*
X001640Y003204D01*
X001559Y003105D02*
X001010Y003105D01*
X001118Y003302D02*
X001542Y003302D01*
X001443Y003401D02*
X001217Y003401D01*
X001280Y003499D02*
X001380Y003499D01*
X001380Y003598D02*
X001280Y003598D01*
X001280Y003696D02*
X001380Y003696D01*
X001380Y003795D02*
X001280Y003795D01*
X001223Y003893D02*
X001437Y003893D01*
X001535Y003992D02*
X001125Y003992D01*
X002020Y003204D02*
X002175Y003204D01*
X002069Y002847D02*
X001829Y002847D01*
X001770Y002789D01*
X001770Y002770D01*
X001723Y002770D01*
X001584Y002630D01*
X001485Y002630D01*
X001350Y002495D01*
X001350Y002305D01*
X001485Y002170D01*
X001675Y002170D01*
X001810Y002305D01*
X001810Y002391D01*
X001829Y002372D01*
X002069Y002372D01*
X002128Y002430D01*
X002128Y002789D01*
X002069Y002847D01*
X002107Y002810D02*
X002194Y002810D01*
X002128Y002711D02*
X002282Y002711D01*
X002282Y002613D02*
X002128Y002613D01*
X002128Y002514D02*
X002282Y002514D01*
X002297Y002416D02*
X002113Y002416D01*
X002084Y002219D02*
X002626Y002219D01*
X002639Y002120D02*
X002724Y002120D01*
X002770Y002022D02*
X002640Y002022D01*
X002640Y001923D02*
X002770Y001923D01*
X002770Y001825D02*
X002640Y001825D01*
X002704Y001726D02*
X002789Y001726D01*
X002810Y001569D02*
X003045Y001334D01*
X003139Y001240D01*
X004021Y001240D01*
X004115Y001334D01*
X004484Y001703D01*
X004484Y001742D01*
X004503Y001761D01*
X004503Y001770D01*
X004657Y001770D01*
X004657Y001761D01*
X004676Y001742D01*
X004676Y001578D01*
X005399Y000855D01*
X005380Y000836D01*
X005380Y000464D01*
X005544Y000300D01*
X005116Y000300D01*
X005280Y000464D01*
X005280Y000836D01*
X005016Y001100D01*
X004644Y001100D01*
X004380Y000836D01*
X004380Y000464D01*
X004544Y000300D01*
X004116Y000300D01*
X004280Y000464D01*
X004280Y000836D01*
X004016Y001100D01*
X003644Y001100D01*
X003380Y000836D01*
X003380Y000464D01*
X003544Y000300D01*
X003116Y000300D01*
X003280Y000464D01*
X003280Y000836D01*
X003016Y001100D01*
X002644Y001100D01*
X002380Y000836D01*
X002380Y000464D01*
X002544Y000300D01*
X002116Y000300D01*
X002280Y000464D01*
X002280Y000836D01*
X002074Y001043D01*
X002365Y001334D01*
X002365Y001415D01*
X002485Y001295D01*
X002675Y001295D01*
X002810Y001430D01*
X002810Y001569D01*
X002810Y001529D02*
X002850Y001529D01*
X002810Y001431D02*
X002948Y001431D01*
X003047Y001332D02*
X002712Y001332D01*
X002580Y001037D02*
X002080Y001037D01*
X002166Y001135D02*
X005119Y001135D01*
X005080Y001037D02*
X005217Y001037D01*
X005178Y000938D02*
X005316Y000938D01*
X005277Y000840D02*
X005383Y000840D01*
X005380Y000741D02*
X005280Y000741D01*
X005280Y000643D02*
X005380Y000643D01*
X005380Y000544D02*
X005280Y000544D01*
X005262Y000446D02*
X005398Y000446D01*
X005497Y000347D02*
X005163Y000347D01*
X005625Y001081D02*
X004996Y001710D01*
X004996Y001742D01*
X005015Y001761D01*
X005015Y002024D01*
X005145Y001893D01*
X005145Y001761D01*
X005204Y001703D01*
X005444Y001703D01*
X005503Y001761D01*
X005503Y002120D01*
X005444Y002178D01*
X005313Y002178D01*
X005059Y002432D01*
X005065Y002452D01*
X005065Y002610D01*
X005065Y002767D01*
X005054Y002805D01*
X005035Y002840D01*
X005007Y002867D01*
X004973Y002887D01*
X004934Y002897D01*
X004836Y002897D01*
X004836Y002610D01*
X004836Y002610D01*
X004836Y002897D01*
X004737Y002897D01*
X004699Y002887D01*
X004696Y002885D01*
X004615Y002966D01*
X004521Y003060D01*
X004245Y003060D01*
X004175Y003130D01*
X003990Y003130D01*
X003990Y003200D01*
X004016Y003200D01*
X004280Y003464D01*
X004280Y003836D01*
X004121Y003995D01*
X004539Y003995D01*
X004380Y003836D01*
X004380Y003464D01*
X004644Y003200D01*
X005016Y003200D01*
X005035Y003219D01*
X005164Y003090D01*
X005164Y002808D01*
X005145Y002789D01*
X005145Y002430D01*
X005204Y002372D01*
X005444Y002372D01*
X005452Y002380D01*
X005460Y002372D01*
X005645Y002372D01*
X005665Y002352D01*
X005699Y002332D01*
X005737Y002322D01*
X005836Y002322D01*
X005934Y002322D01*
X005973Y002332D01*
X006007Y002352D01*
X006035Y002380D01*
X006054Y002414D01*
X006065Y002452D01*
X006065Y002610D01*
X006065Y002767D01*
X006054Y002805D01*
X006035Y002840D01*
X006007Y002867D01*
X005973Y002887D01*
X005934Y002897D01*
X005836Y002897D01*
X005836Y002610D01*
X005836Y002610D01*
X005836Y002897D01*
X005804Y002897D01*
X005990Y003084D01*
X005990Y003200D01*
X006016Y003200D01*
X006280Y003464D01*
X006280Y003836D01*
X006116Y004000D01*
X006544Y004000D01*
X006380Y003836D01*
X006380Y003464D01*
X006644Y003200D01*
X006670Y003200D01*
X006670Y002341D01*
X006429Y002100D01*
X006015Y002100D01*
X006015Y002120D01*
X005956Y002178D01*
X005716Y002178D01*
X005657Y002120D01*
X005657Y001761D01*
X005716Y001703D01*
X005956Y001703D01*
X006015Y001761D01*
X006015Y001780D01*
X006562Y001780D01*
X006896Y002115D01*
X006990Y002209D01*
X006990Y003200D01*
X007016Y003200D01*
X007172Y003356D01*
X007172Y001015D01*
X007037Y001150D01*
X006880Y001150D01*
X006880Y000700D01*
X006780Y000700D01*
X006780Y001150D01*
X006623Y001150D01*
X006330Y000857D01*
X006330Y000700D01*
X006780Y000700D01*
X006780Y000600D01*
X006330Y000600D01*
X006330Y000443D01*
X006473Y000300D01*
X006116Y000300D01*
X006280Y000464D01*
X006280Y000836D01*
X006016Y001100D01*
X005644Y001100D01*
X005625Y001081D01*
X005571Y001135D02*
X006608Y001135D01*
X006509Y001037D02*
X006080Y001037D01*
X006178Y000938D02*
X006411Y000938D01*
X006330Y000840D02*
X006277Y000840D01*
X006280Y000741D02*
X006330Y000741D01*
X006280Y000643D02*
X006780Y000643D01*
X006780Y000741D02*
X006880Y000741D01*
X006880Y000840D02*
X006780Y000840D01*
X006780Y000938D02*
X006880Y000938D01*
X006880Y001037D02*
X006780Y001037D01*
X006780Y001135D02*
X006880Y001135D01*
X007052Y001135D02*
X007172Y001135D01*
X007172Y001037D02*
X007151Y001037D01*
X007172Y001234D02*
X005473Y001234D01*
X005374Y001332D02*
X007172Y001332D01*
X007172Y001431D02*
X005276Y001431D01*
X005177Y001529D02*
X007172Y001529D01*
X007172Y001628D02*
X005079Y001628D01*
X004996Y001726D02*
X005180Y001726D01*
X005145Y001825D02*
X005015Y001825D01*
X005015Y001923D02*
X005115Y001923D01*
X005017Y002022D02*
X005015Y002022D01*
X005174Y002317D02*
X006646Y002317D01*
X006670Y002416D02*
X006055Y002416D01*
X006065Y002514D02*
X006670Y002514D01*
X006670Y002613D02*
X006065Y002613D01*
X006065Y002610D02*
X005836Y002610D01*
X005836Y002610D01*
X006065Y002610D01*
X006065Y002711D02*
X006670Y002711D01*
X006670Y002810D02*
X006052Y002810D01*
X005913Y003007D02*
X006670Y003007D01*
X006670Y003105D02*
X005990Y003105D01*
X006020Y003204D02*
X006640Y003204D01*
X006542Y003302D02*
X006118Y003302D01*
X006217Y003401D02*
X006443Y003401D01*
X006380Y003499D02*
X006280Y003499D01*
X006280Y003598D02*
X006380Y003598D01*
X006380Y003696D02*
X006280Y003696D01*
X006280Y003795D02*
X006380Y003795D01*
X006437Y003893D02*
X006223Y003893D01*
X006125Y003992D02*
X006535Y003992D01*
X007118Y003302D02*
X007172Y003302D01*
X007172Y003204D02*
X007020Y003204D01*
X006990Y003105D02*
X007172Y003105D01*
X007172Y003007D02*
X006990Y003007D01*
X006990Y002908D02*
X007172Y002908D01*
X007172Y002810D02*
X006990Y002810D01*
X006990Y002711D02*
X007172Y002711D01*
X007172Y002613D02*
X006990Y002613D01*
X006990Y002514D02*
X007172Y002514D01*
X007172Y002416D02*
X006990Y002416D01*
X006990Y002317D02*
X007172Y002317D01*
X007172Y002219D02*
X006990Y002219D01*
X006901Y002120D02*
X007172Y002120D01*
X007172Y002022D02*
X006803Y002022D01*
X006704Y001923D02*
X007172Y001923D01*
X007172Y001825D02*
X006606Y001825D01*
X006449Y002120D02*
X006014Y002120D01*
X005836Y002322D02*
X005836Y002610D01*
X005836Y002610D01*
X005836Y002322D01*
X005836Y002416D02*
X005836Y002416D01*
X005836Y002514D02*
X005836Y002514D01*
X005836Y002613D02*
X005836Y002613D01*
X005836Y002711D02*
X005836Y002711D01*
X005836Y002810D02*
X005836Y002810D01*
X005814Y002908D02*
X006670Y002908D01*
X006547Y002219D02*
X005272Y002219D01*
X005160Y002416D02*
X005075Y002416D01*
X005065Y002514D02*
X005145Y002514D01*
X005145Y002613D02*
X005065Y002613D01*
X005065Y002610D02*
X004836Y002610D01*
X004836Y002610D01*
X005065Y002610D01*
X005065Y002711D02*
X005145Y002711D01*
X005164Y002810D02*
X005052Y002810D01*
X005164Y002908D02*
X004673Y002908D01*
X004575Y003007D02*
X005164Y003007D01*
X005149Y003105D02*
X004200Y003105D01*
X004118Y003302D02*
X004542Y003302D01*
X004640Y003204D02*
X004020Y003204D01*
X004217Y003401D02*
X004443Y003401D01*
X004380Y003499D02*
X004280Y003499D01*
X004280Y003598D02*
X004380Y003598D01*
X004380Y003696D02*
X004280Y003696D01*
X004280Y003795D02*
X004380Y003795D01*
X004437Y003893D02*
X004223Y003893D01*
X004125Y003992D02*
X004535Y003992D01*
X005020Y003204D02*
X005050Y003204D01*
X004836Y002810D02*
X004836Y002810D01*
X004836Y002711D02*
X004836Y002711D01*
X004836Y002613D02*
X004836Y002613D01*
X005502Y002120D02*
X005658Y002120D01*
X005657Y002022D02*
X005503Y002022D01*
X005503Y001923D02*
X005657Y001923D01*
X005657Y001825D02*
X005503Y001825D01*
X005468Y001726D02*
X005692Y001726D01*
X005980Y001726D02*
X007172Y001726D01*
X006330Y000544D02*
X006280Y000544D01*
X006262Y000446D02*
X006330Y000446D01*
X006426Y000347D02*
X006163Y000347D01*
X005020Y001234D02*
X002265Y001234D01*
X002363Y001332D02*
X002448Y001332D01*
X002482Y000938D02*
X002178Y000938D01*
X002277Y000840D02*
X002383Y000840D01*
X002380Y000741D02*
X002280Y000741D01*
X002280Y000643D02*
X002380Y000643D01*
X002380Y000544D02*
X002280Y000544D01*
X002262Y000446D02*
X002398Y000446D01*
X002497Y000347D02*
X002163Y000347D01*
X001714Y001135D02*
X000480Y001135D01*
X000480Y001037D02*
X000580Y001037D01*
X000482Y000938D02*
X000480Y000938D01*
X000480Y001234D02*
X001812Y001234D01*
X001911Y001332D02*
X000480Y001332D01*
X000480Y001431D02*
X002009Y001431D01*
X002045Y001529D02*
X001300Y001529D01*
X001318Y001628D02*
X002045Y001628D01*
X001949Y001726D02*
X001949Y001726D01*
X001949Y001825D02*
X001949Y001825D01*
X001949Y001923D02*
X001949Y001923D01*
X001949Y001940D02*
X001720Y001940D01*
X001949Y001940D01*
X001949Y001940D01*
X001949Y002228D01*
X001949Y001940D01*
X001949Y001940D01*
X001949Y002022D02*
X001949Y002022D01*
X001949Y002120D02*
X001949Y002120D01*
X001949Y002219D02*
X001949Y002219D01*
X001815Y002219D02*
X001724Y002219D01*
X001726Y002120D02*
X001272Y002120D01*
X001260Y002132D02*
X001225Y002152D01*
X001187Y002162D01*
X001005Y002162D01*
X001005Y001856D01*
X001318Y001856D01*
X001318Y002032D01*
X001307Y002070D01*
X001288Y002104D01*
X001260Y002132D01*
X001240Y002219D02*
X001436Y002219D01*
X001350Y002317D02*
X001268Y002317D01*
X001268Y002416D02*
X001350Y002416D01*
X001369Y002514D02*
X001268Y002514D01*
X001268Y002613D02*
X001467Y002613D01*
X001665Y002711D02*
X001268Y002711D01*
X001716Y002810D02*
X001791Y002810D01*
X001810Y002317D02*
X002527Y002317D01*
X003085Y002317D02*
X003670Y002317D01*
X003632Y002352D02*
X003660Y002380D01*
X003670Y002398D01*
X003670Y002216D01*
X003606Y002153D01*
X003581Y002178D01*
X003341Y002178D01*
X003282Y002120D01*
X003282Y001761D01*
X003341Y001703D01*
X003581Y001703D01*
X003640Y001761D01*
X003640Y001780D01*
X003687Y001780D01*
X003725Y001819D01*
X003725Y001742D01*
X003860Y001608D01*
X003936Y001608D01*
X003889Y001560D01*
X003271Y001560D01*
X003109Y001722D01*
X003109Y001742D01*
X003128Y001761D01*
X003128Y002120D01*
X003109Y002138D01*
X003109Y002188D01*
X003085Y002212D01*
X003085Y002372D01*
X003270Y002372D01*
X003290Y002352D01*
X003324Y002332D01*
X003362Y002322D01*
X003461Y002322D01*
X003559Y002322D01*
X003598Y002332D01*
X003632Y002352D01*
X003670Y002219D02*
X003085Y002219D01*
X003127Y002120D02*
X003283Y002120D01*
X003282Y002022D02*
X003128Y002022D01*
X003128Y001923D02*
X003282Y001923D01*
X003282Y001825D02*
X003128Y001825D01*
X003109Y001726D02*
X003317Y001726D01*
X003204Y001628D02*
X003840Y001628D01*
X003741Y001726D02*
X003605Y001726D01*
X003461Y002322D02*
X003461Y002610D01*
X003461Y002610D01*
X003461Y002897D01*
X003559Y002897D01*
X003598Y002887D01*
X003632Y002867D01*
X003660Y002840D01*
X003670Y002822D01*
X003670Y003200D01*
X003644Y003200D01*
X003380Y003464D01*
X003380Y003836D01*
X003539Y003995D01*
X003121Y003995D01*
X003280Y003836D01*
X003280Y003464D01*
X003016Y003200D01*
X003006Y003200D01*
X003321Y002885D01*
X003324Y002887D01*
X003362Y002897D01*
X003461Y002897D01*
X003461Y002610D01*
X003461Y002610D01*
X003461Y002322D01*
X003461Y002416D02*
X003461Y002416D01*
X003461Y002514D02*
X003461Y002514D01*
X003461Y002613D02*
X003461Y002613D01*
X003461Y002711D02*
X003461Y002711D01*
X003461Y002810D02*
X003461Y002810D01*
X003298Y002908D02*
X003670Y002908D01*
X003670Y003007D02*
X003200Y003007D01*
X003101Y003105D02*
X003670Y003105D01*
X003640Y003204D02*
X003020Y003204D01*
X003118Y003302D02*
X003542Y003302D01*
X003443Y003401D02*
X003217Y003401D01*
X003280Y003499D02*
X003380Y003499D01*
X003380Y003598D02*
X003280Y003598D01*
X003280Y003696D02*
X003380Y003696D01*
X003380Y003795D02*
X003280Y003795D01*
X003223Y003893D02*
X003437Y003893D01*
X003535Y003992D02*
X003125Y003992D01*
X001720Y002022D02*
X001318Y002022D01*
X001318Y001923D02*
X001720Y001923D01*
X001720Y001825D02*
X001005Y001825D01*
X001005Y001923D02*
X000905Y001923D01*
X000905Y002022D02*
X001005Y002022D01*
X001005Y002120D02*
X000905Y002120D01*
X000592Y001726D02*
X000480Y001726D01*
X000480Y001628D02*
X000592Y001628D01*
X000610Y001529D02*
X000480Y001529D01*
X001318Y001726D02*
X001741Y001726D01*
X003080Y001037D02*
X003580Y001037D01*
X003482Y000938D02*
X003178Y000938D01*
X003277Y000840D02*
X003383Y000840D01*
X003380Y000741D02*
X003280Y000741D01*
X003280Y000643D02*
X003380Y000643D01*
X003380Y000544D02*
X003280Y000544D01*
X003262Y000446D02*
X003398Y000446D01*
X003497Y000347D02*
X003163Y000347D01*
X004080Y001037D02*
X004580Y001037D01*
X004482Y000938D02*
X004178Y000938D01*
X004277Y000840D02*
X004383Y000840D01*
X004380Y000741D02*
X004280Y000741D01*
X004280Y000643D02*
X004380Y000643D01*
X004380Y000544D02*
X004280Y000544D01*
X004262Y000446D02*
X004398Y000446D01*
X004497Y000347D02*
X004163Y000347D01*
X004113Y001332D02*
X004922Y001332D01*
X004823Y001431D02*
X004212Y001431D01*
X004310Y001529D02*
X004725Y001529D01*
X004676Y001628D02*
X004409Y001628D01*
X004484Y001726D02*
X004676Y001726D01*
D15*
X003955Y001838D03*
X003330Y001025D03*
X002580Y001525D03*
X002330Y001025D03*
X001580Y002025D03*
X001580Y002400D03*
X002205Y002275D03*
X001330Y003275D03*
X003205Y002275D03*
X003330Y003275D03*
X004080Y002900D03*
X004330Y003275D03*
X005580Y002275D03*
X006330Y003275D03*
X003955Y006525D03*
X003330Y005775D03*
X002580Y006150D03*
X002330Y005775D03*
X001580Y006775D03*
X001580Y007150D03*
X002205Y007025D03*
X001330Y008025D03*
X003205Y007025D03*
X003330Y008025D03*
X004080Y007650D03*
X004330Y008025D03*
X005580Y007025D03*
X006330Y008025D03*
D16*
X006170Y008090D02*
X006490Y008090D01*
X006371Y008208D02*
X006289Y008208D01*
X006290Y008209D02*
X006290Y008591D01*
X006146Y008735D01*
X006514Y008735D01*
X006370Y008591D01*
X006370Y008209D01*
X006639Y007940D01*
X006660Y007940D01*
X006660Y007095D01*
X006425Y006860D01*
X006025Y006860D01*
X006025Y006874D01*
X005960Y006938D01*
X005712Y006938D01*
X005647Y006874D01*
X005647Y006507D01*
X005712Y006443D01*
X005960Y006443D01*
X006025Y006507D01*
X006025Y006520D01*
X006566Y006520D01*
X006900Y006855D01*
X007000Y006955D01*
X007000Y007940D01*
X007021Y007940D01*
X007162Y008082D01*
X007162Y005789D01*
X007041Y005910D01*
X006870Y005910D01*
X006870Y005440D01*
X006790Y005440D01*
X006790Y005910D01*
X006619Y005910D01*
X006320Y005611D01*
X006320Y005440D01*
X006790Y005440D01*
X006790Y005360D01*
X006320Y005360D01*
X006320Y005189D01*
X006449Y005060D01*
X006141Y005060D01*
X006290Y005209D01*
X006290Y005591D01*
X006021Y005860D01*
X005639Y005860D01*
X005625Y005845D01*
X005006Y006465D01*
X005006Y006488D01*
X005025Y006507D01*
X005025Y006749D01*
X005135Y006639D01*
X005135Y006507D01*
X005200Y006443D01*
X005448Y006443D01*
X005513Y006507D01*
X005513Y006874D01*
X005448Y006938D01*
X005317Y006938D01*
X005070Y007185D01*
X005075Y007201D01*
X005075Y007360D01*
X005075Y007519D01*
X005064Y007559D01*
X005043Y007596D01*
X005013Y007625D01*
X004976Y007647D01*
X004936Y007657D01*
X004836Y007657D01*
X004836Y007360D01*
X004836Y007360D01*
X004836Y007657D01*
X004736Y007657D01*
X004698Y007647D01*
X004650Y007695D01*
X004625Y007720D01*
X004625Y007720D01*
X004525Y007820D01*
X004249Y007820D01*
X004216Y007853D01*
X004128Y007890D01*
X004032Y007890D01*
X004000Y007877D01*
X004000Y007940D01*
X004021Y007940D01*
X004290Y008209D01*
X004290Y008591D01*
X004146Y008735D01*
X004514Y008735D01*
X004370Y008591D01*
X004370Y008209D01*
X004639Y007940D01*
X005021Y007940D01*
X005035Y007955D01*
X005154Y007835D01*
X005154Y007562D01*
X005135Y007543D01*
X005135Y007176D01*
X005200Y007112D01*
X005448Y007112D01*
X005452Y007115D01*
X005456Y007112D01*
X005641Y007112D01*
X005659Y007094D01*
X005695Y007073D01*
X005736Y007062D01*
X005836Y007062D01*
X005936Y007062D01*
X005976Y007073D01*
X006013Y007094D01*
X006043Y007124D01*
X006064Y007160D01*
X006075Y007201D01*
X006075Y007360D01*
X006075Y007519D01*
X006064Y007559D01*
X006043Y007596D01*
X006013Y007625D01*
X005976Y007647D01*
X005936Y007657D01*
X005836Y007657D01*
X005836Y007360D01*
X005836Y007360D01*
X005836Y007657D01*
X005828Y007657D01*
X005900Y007730D01*
X006000Y007830D01*
X006000Y007940D01*
X006021Y007940D01*
X006290Y008209D01*
X006290Y008327D02*
X006370Y008327D01*
X006370Y008445D02*
X006290Y008445D01*
X006290Y008564D02*
X006370Y008564D01*
X006461Y008682D02*
X006199Y008682D01*
X005830Y008400D02*
X005830Y007900D01*
X005580Y007650D01*
X005580Y007360D01*
X005836Y007360D02*
X005836Y007062D01*
X005836Y007360D01*
X006075Y007360D01*
X005836Y007360D01*
X005836Y007360D01*
X005836Y007360D01*
X005836Y007379D02*
X005836Y007379D01*
X005836Y007497D02*
X005836Y007497D01*
X005836Y007616D02*
X005836Y007616D01*
X005904Y007734D02*
X006660Y007734D01*
X006660Y007616D02*
X006023Y007616D01*
X006075Y007497D02*
X006660Y007497D01*
X006660Y007379D02*
X006075Y007379D01*
X006075Y007260D02*
X006660Y007260D01*
X006660Y007142D02*
X006053Y007142D01*
X005836Y007142D02*
X005836Y007142D01*
X005836Y007260D02*
X005836Y007260D01*
X005994Y006905D02*
X006469Y006905D01*
X006588Y007023D02*
X005232Y007023D01*
X005170Y007142D02*
X005113Y007142D01*
X005135Y007260D02*
X005075Y007260D01*
X005075Y007360D02*
X004836Y007360D01*
X005075Y007360D01*
X005075Y007379D02*
X005135Y007379D01*
X005135Y007497D02*
X005075Y007497D01*
X005023Y007616D02*
X005154Y007616D01*
X005154Y007734D02*
X004611Y007734D01*
X004650Y007695D02*
X004650Y007695D01*
X004580Y007525D02*
X004455Y007650D01*
X004080Y007650D01*
X004217Y007853D02*
X005137Y007853D01*
X005324Y007906D02*
X004830Y008400D01*
X004608Y007971D02*
X004052Y007971D01*
X004170Y008090D02*
X004490Y008090D01*
X004371Y008208D02*
X004289Y008208D01*
X004290Y008327D02*
X004370Y008327D01*
X004370Y008445D02*
X004290Y008445D01*
X004290Y008564D02*
X004370Y008564D01*
X004461Y008682D02*
X004199Y008682D01*
X003830Y008400D02*
X003830Y006900D01*
X003620Y006690D01*
X003461Y006690D01*
X003650Y006520D02*
X003691Y006520D01*
X003715Y006545D01*
X003715Y006477D01*
X003752Y006389D01*
X003819Y006322D01*
X003823Y006320D01*
X003275Y006320D01*
X003125Y006470D01*
X003125Y006494D01*
X003138Y006507D01*
X003138Y006874D01*
X003119Y006892D01*
X003119Y006942D01*
X003095Y006966D01*
X003095Y007112D01*
X003266Y007112D01*
X003284Y007094D01*
X003320Y007073D01*
X003361Y007062D01*
X003461Y007062D01*
X003561Y007062D01*
X003601Y007073D01*
X003638Y007094D01*
X003660Y007116D01*
X003660Y006970D01*
X003606Y006917D01*
X003585Y006938D01*
X003337Y006938D01*
X003272Y006874D01*
X003272Y006507D01*
X003337Y006443D01*
X003585Y006443D01*
X003650Y006507D01*
X003650Y006520D01*
X003734Y006431D02*
X003165Y006431D01*
X003138Y006549D02*
X003272Y006549D01*
X003272Y006668D02*
X003138Y006668D01*
X003138Y006786D02*
X003272Y006786D01*
X003303Y006905D02*
X003119Y006905D01*
X003095Y007023D02*
X003660Y007023D01*
X003461Y007062D02*
X003461Y007360D01*
X003461Y007360D01*
X003461Y007657D01*
X003561Y007657D01*
X003601Y007647D01*
X003638Y007625D01*
X003660Y007603D01*
X003660Y007940D01*
X003639Y007940D01*
X003370Y008209D01*
X003370Y008591D01*
X003514Y008735D01*
X003146Y008735D01*
X003290Y008591D01*
X003290Y008209D01*
X003025Y007945D01*
X003323Y007647D01*
X003361Y007657D01*
X003461Y007657D01*
X003461Y007360D01*
X003461Y007360D01*
X003461Y007062D01*
X003461Y007142D02*
X003461Y007142D01*
X003461Y007260D02*
X003461Y007260D01*
X003461Y007379D02*
X003461Y007379D01*
X003461Y007497D02*
X003461Y007497D01*
X003461Y007616D02*
X003461Y007616D01*
X003648Y007616D02*
X003660Y007616D01*
X003660Y007734D02*
X003236Y007734D01*
X003118Y007853D02*
X003660Y007853D01*
X003608Y007971D02*
X003052Y007971D01*
X003170Y008090D02*
X003490Y008090D01*
X003371Y008208D02*
X003289Y008208D01*
X003290Y008327D02*
X003370Y008327D01*
X003370Y008445D02*
X003290Y008445D01*
X003290Y008564D02*
X003370Y008564D01*
X003461Y008682D02*
X003199Y008682D01*
X002830Y008400D02*
X002830Y007900D01*
X003205Y007525D01*
X003205Y007360D01*
X002949Y007360D02*
X001909Y008400D01*
X001830Y008400D01*
X001514Y008735D02*
X001370Y008591D01*
X001370Y008209D01*
X001635Y007945D01*
X001510Y007820D01*
X001054Y007820D01*
X001034Y007840D01*
X001020Y007854D01*
X001020Y007940D01*
X001021Y007940D01*
X001290Y008209D01*
X001290Y008591D01*
X001146Y008735D01*
X001514Y008735D01*
X001461Y008682D02*
X001199Y008682D01*
X001290Y008564D02*
X001370Y008564D01*
X001370Y008445D02*
X001290Y008445D01*
X001290Y008327D02*
X001370Y008327D01*
X001371Y008208D02*
X001289Y008208D01*
X001170Y008090D02*
X001490Y008090D01*
X001608Y007971D02*
X001052Y007971D01*
X001021Y007853D02*
X001542Y007853D01*
X001705Y007775D02*
X001580Y007650D01*
X000955Y007650D01*
X000765Y007571D02*
X000765Y007561D01*
X000697Y007561D01*
X000632Y007497D01*
X000632Y006992D01*
X000697Y006928D01*
X001213Y006928D01*
X001278Y006992D01*
X001278Y007480D01*
X001650Y007480D01*
X001750Y007580D01*
X001775Y007605D01*
X001822Y007605D01*
X001760Y007543D01*
X001760Y007530D01*
X001719Y007530D01*
X001580Y007390D01*
X001532Y007390D01*
X001444Y007353D01*
X001377Y007286D01*
X001340Y007198D01*
X001340Y007102D01*
X001377Y007014D01*
X001444Y006947D01*
X001532Y006910D01*
X001628Y006910D01*
X001716Y006947D01*
X001783Y007014D01*
X001820Y007102D01*
X001820Y007117D01*
X001825Y007112D01*
X002073Y007112D01*
X002138Y007176D01*
X002138Y007543D01*
X002076Y007605D01*
X002135Y007605D01*
X002272Y007467D01*
X002272Y007176D01*
X002337Y007112D01*
X002468Y007112D01*
X002760Y006820D01*
X002760Y006507D01*
X002785Y006482D01*
X002785Y006330D01*
X003035Y006080D01*
X003135Y005980D01*
X004150Y005980D01*
X004400Y006230D01*
X004500Y006330D01*
X004500Y006494D01*
X004513Y006507D01*
X004513Y006510D01*
X004647Y006510D01*
X004647Y006507D01*
X004666Y006488D01*
X004666Y006324D01*
X005385Y005605D01*
X005370Y005591D01*
X005370Y005209D01*
X005519Y005060D01*
X005141Y005060D01*
X005290Y005209D01*
X005290Y005591D01*
X005021Y005860D01*
X004639Y005860D01*
X004370Y005591D01*
X004370Y005209D01*
X004519Y005060D01*
X004141Y005060D01*
X004290Y005209D01*
X004290Y005591D01*
X004021Y005860D01*
X003639Y005860D01*
X003370Y005591D01*
X003370Y005209D01*
X003519Y005060D01*
X003141Y005060D01*
X003290Y005209D01*
X003290Y005591D01*
X003021Y005860D01*
X002639Y005860D01*
X002370Y005591D01*
X002370Y005209D01*
X002519Y005060D01*
X002141Y005060D01*
X002290Y005209D01*
X002290Y005591D01*
X002088Y005793D01*
X002357Y006061D01*
X002377Y006014D01*
X002444Y005947D01*
X002532Y005910D01*
X002628Y005910D01*
X002716Y005947D01*
X002783Y006014D01*
X002820Y006102D01*
X002820Y006198D01*
X002783Y006286D01*
X002716Y006353D01*
X002631Y006389D01*
X002631Y006488D01*
X002650Y006507D01*
X002650Y006874D01*
X002585Y006938D01*
X002337Y006938D01*
X002333Y006934D01*
X002329Y006938D01*
X002144Y006938D01*
X002126Y006956D01*
X002090Y006977D01*
X002049Y006988D01*
X001949Y006988D01*
X001849Y006988D01*
X001809Y006977D01*
X001772Y006956D01*
X001742Y006926D01*
X001721Y006890D01*
X001710Y006849D01*
X001710Y006690D01*
X001710Y006531D01*
X001721Y006491D01*
X001742Y006454D01*
X001772Y006425D01*
X001809Y006403D01*
X001849Y006393D01*
X001949Y006393D01*
X001949Y006690D01*
X001949Y006690D01*
X001949Y006393D01*
X002035Y006393D01*
X002035Y006220D01*
X001760Y005945D01*
X001675Y005860D01*
X001639Y005860D01*
X001370Y005591D01*
X001370Y005209D01*
X001519Y005060D01*
X001141Y005060D01*
X001290Y005209D01*
X001290Y005591D01*
X001021Y005860D01*
X000639Y005860D01*
X000490Y005711D01*
X000490Y008089D01*
X000639Y007940D01*
X000640Y007940D01*
X000640Y007696D01*
X000765Y007571D01*
X000721Y007616D02*
X000490Y007616D01*
X000490Y007734D02*
X000640Y007734D01*
X000640Y007853D02*
X000490Y007853D01*
X000490Y007971D02*
X000608Y007971D01*
X000633Y007497D02*
X000490Y007497D01*
X000490Y007379D02*
X000632Y007379D01*
X000632Y007260D02*
X000490Y007260D01*
X000490Y007142D02*
X000632Y007142D01*
X000632Y007023D02*
X000490Y007023D01*
X000490Y006905D02*
X000669Y006905D01*
X000681Y006911D02*
X000644Y006890D01*
X000614Y006860D01*
X000593Y006824D01*
X000582Y006783D01*
X000582Y006599D01*
X000912Y006599D01*
X000912Y006922D01*
X000721Y006922D01*
X000681Y006911D01*
X000583Y006786D02*
X000490Y006786D01*
X000490Y006668D02*
X000582Y006668D01*
X000490Y006549D02*
X000912Y006549D01*
X000912Y006512D02*
X000912Y006599D01*
X000998Y006599D01*
X000998Y006922D01*
X001189Y006922D01*
X001229Y006911D01*
X001266Y006890D01*
X001296Y006860D01*
X001317Y006824D01*
X001328Y006783D01*
X001328Y006599D01*
X000998Y006599D01*
X000998Y006512D01*
X000998Y006189D01*
X001189Y006189D01*
X001229Y006200D01*
X001266Y006221D01*
X001296Y006251D01*
X001317Y006287D01*
X001328Y006328D01*
X001328Y006512D01*
X000998Y006512D01*
X000912Y006512D01*
X000912Y006189D01*
X000721Y006189D01*
X000681Y006200D01*
X000644Y006221D01*
X000614Y006251D01*
X000593Y006287D01*
X000582Y006328D01*
X000582Y006512D01*
X000912Y006512D01*
X000912Y006431D02*
X000998Y006431D01*
X000998Y006549D02*
X001710Y006549D01*
X001710Y006668D02*
X001328Y006668D01*
X001327Y006786D02*
X001710Y006786D01*
X001710Y006690D02*
X001949Y006690D01*
X001710Y006690D01*
X001730Y006905D02*
X001241Y006905D01*
X001278Y007023D02*
X001373Y007023D01*
X001340Y007142D02*
X001278Y007142D01*
X001278Y007260D02*
X001366Y007260D01*
X001278Y007379D02*
X001505Y007379D01*
X001667Y007497D02*
X001687Y007497D01*
X001790Y007360D02*
X001580Y007150D01*
X001787Y007023D02*
X002557Y007023D01*
X002619Y006905D02*
X002676Y006905D01*
X002650Y006786D02*
X002760Y006786D01*
X002760Y006668D02*
X002650Y006668D01*
X002650Y006549D02*
X002760Y006549D01*
X002785Y006431D02*
X002631Y006431D01*
X002757Y006312D02*
X002803Y006312D01*
X002820Y006194D02*
X002921Y006194D01*
X002809Y006075D02*
X003040Y006075D01*
X003205Y006150D02*
X004080Y006150D01*
X004330Y006400D01*
X004330Y006684D01*
X004330Y006775D01*
X004580Y007025D01*
X004989Y007025D01*
X005324Y006690D01*
X005513Y006668D02*
X005647Y006668D01*
X005647Y006786D02*
X005513Y006786D01*
X005482Y006905D02*
X005678Y006905D01*
X005836Y006690D02*
X006495Y006690D01*
X006830Y007025D01*
X006830Y008400D01*
X007052Y007971D02*
X007162Y007971D01*
X007162Y007853D02*
X007000Y007853D01*
X007000Y007734D02*
X007162Y007734D01*
X007162Y007616D02*
X007000Y007616D01*
X007000Y007497D02*
X007162Y007497D01*
X007162Y007379D02*
X007000Y007379D01*
X007000Y007260D02*
X007162Y007260D01*
X007162Y007142D02*
X007000Y007142D01*
X007000Y007023D02*
X007162Y007023D01*
X007162Y006905D02*
X006950Y006905D01*
X006831Y006786D02*
X007162Y006786D01*
X007162Y006668D02*
X006713Y006668D01*
X006594Y006549D02*
X007162Y006549D01*
X007162Y006431D02*
X005040Y006431D01*
X005025Y006549D02*
X005135Y006549D01*
X005107Y006668D02*
X005025Y006668D01*
X004836Y006690D02*
X004836Y006394D01*
X005830Y005400D01*
X006161Y005720D02*
X006428Y005720D01*
X006320Y005601D02*
X006280Y005601D01*
X006290Y005483D02*
X006320Y005483D01*
X006290Y005364D02*
X006790Y005364D01*
X006790Y005483D02*
X006870Y005483D01*
X006870Y005601D02*
X006790Y005601D01*
X006790Y005720D02*
X006870Y005720D01*
X006870Y005838D02*
X006790Y005838D01*
X006547Y005838D02*
X006043Y005838D01*
X006290Y005246D02*
X006320Y005246D01*
X006382Y005127D02*
X006208Y005127D01*
X005514Y005957D02*
X007162Y005957D01*
X007162Y006075D02*
X005395Y006075D01*
X005277Y006194D02*
X007162Y006194D01*
X007162Y006312D02*
X005158Y006312D01*
X004915Y006075D02*
X004245Y006075D01*
X004364Y006194D02*
X004796Y006194D01*
X004678Y006312D02*
X004482Y006312D01*
X004500Y006431D02*
X004666Y006431D01*
X004330Y006684D02*
X004324Y006690D01*
X004080Y006650D02*
X003955Y006525D01*
X004080Y006650D02*
X004080Y007116D01*
X004324Y007360D01*
X004580Y007360D02*
X004580Y007525D01*
X004836Y007497D02*
X004836Y007497D01*
X004836Y007379D02*
X004836Y007379D01*
X004836Y007360D02*
X004836Y007360D01*
X004836Y007616D02*
X004836Y007616D01*
X005324Y007360D02*
X005324Y007906D01*
X006000Y007853D02*
X006660Y007853D01*
X006608Y007971D02*
X006052Y007971D01*
X005647Y006549D02*
X005513Y006549D01*
X005033Y005957D02*
X002726Y005957D01*
X002617Y005838D02*
X002133Y005838D01*
X002161Y005720D02*
X002499Y005720D01*
X002380Y005601D02*
X002280Y005601D01*
X002290Y005483D02*
X002370Y005483D01*
X002370Y005364D02*
X002290Y005364D01*
X002290Y005246D02*
X002370Y005246D01*
X002452Y005127D02*
X002208Y005127D01*
X001830Y005400D02*
X001830Y005775D01*
X002205Y006150D01*
X002205Y006690D01*
X001949Y006690D02*
X001949Y006988D01*
X001949Y006690D01*
X001949Y006690D01*
X001949Y006690D01*
X001949Y006668D02*
X001949Y006668D01*
X001949Y006786D02*
X001949Y006786D01*
X001949Y006905D02*
X001949Y006905D01*
X002103Y007142D02*
X002307Y007142D01*
X002272Y007260D02*
X002138Y007260D01*
X002138Y007379D02*
X002272Y007379D01*
X002243Y007497D02*
X002138Y007497D01*
X001949Y007360D02*
X001790Y007360D01*
X001705Y007775D02*
X002205Y007775D01*
X002461Y007519D01*
X002461Y007360D01*
X002949Y006871D01*
X002949Y006690D01*
X002955Y006684D01*
X002955Y006400D01*
X003205Y006150D01*
X003043Y005838D02*
X003617Y005838D01*
X003499Y005720D02*
X003161Y005720D01*
X003280Y005601D02*
X003380Y005601D01*
X003370Y005483D02*
X003290Y005483D01*
X003290Y005364D02*
X003370Y005364D01*
X003370Y005246D02*
X003290Y005246D01*
X003208Y005127D02*
X003452Y005127D01*
X004043Y005838D02*
X004617Y005838D01*
X004499Y005720D02*
X004161Y005720D01*
X004280Y005601D02*
X004380Y005601D01*
X004370Y005483D02*
X004290Y005483D01*
X004290Y005364D02*
X004370Y005364D01*
X004370Y005246D02*
X004290Y005246D01*
X004208Y005127D02*
X004452Y005127D01*
X005043Y005838D02*
X005152Y005838D01*
X005161Y005720D02*
X005270Y005720D01*
X005280Y005601D02*
X005380Y005601D01*
X005370Y005483D02*
X005290Y005483D01*
X005290Y005364D02*
X005370Y005364D01*
X005370Y005246D02*
X005290Y005246D01*
X005208Y005127D02*
X005452Y005127D01*
X005830Y003650D02*
X005830Y003150D01*
X005580Y002900D01*
X005580Y002610D01*
X005324Y002610D02*
X005324Y003156D01*
X004830Y003650D01*
X004455Y002900D02*
X004080Y002900D01*
X004324Y002656D02*
X004336Y002656D01*
X004080Y002400D01*
X004080Y001963D01*
X003955Y001838D01*
X003830Y002150D02*
X003830Y003650D01*
X004455Y002900D02*
X004580Y002775D01*
X004580Y002610D01*
X004580Y002275D02*
X004989Y002275D01*
X005324Y001940D01*
X005836Y001940D02*
X006495Y001940D01*
X006830Y002275D01*
X006830Y003650D01*
X007113Y005838D02*
X007162Y005838D01*
X004580Y002275D02*
X004324Y002019D01*
X004324Y001940D01*
X004324Y001769D01*
X003955Y001400D01*
X003205Y001400D01*
X002949Y001656D01*
X002949Y001940D01*
X002949Y002121D01*
X002461Y002610D01*
X002461Y002644D01*
X002455Y002644D01*
X002455Y002775D01*
X002205Y003025D01*
X001705Y003025D01*
X001580Y002900D01*
X000955Y002900D01*
X001580Y002400D02*
X001790Y002610D01*
X001949Y002610D01*
X002205Y001940D02*
X002205Y001400D01*
X001830Y001025D01*
X001830Y000650D01*
X002580Y001525D02*
X002455Y001650D01*
X002455Y001894D01*
X002461Y001894D01*
X002461Y001940D01*
X002949Y002610D02*
X002949Y002656D01*
X001955Y003650D01*
X001830Y003650D01*
X002830Y003650D02*
X002830Y003150D01*
X003205Y002775D01*
X003205Y002610D01*
X003461Y001940D02*
X003620Y001940D01*
X003830Y002150D01*
X004324Y002610D02*
X004324Y002656D01*
X004836Y001940D02*
X004836Y001644D01*
X005830Y000650D01*
X002434Y005957D02*
X002252Y005957D01*
X002461Y006269D02*
X002580Y006150D01*
X002461Y006269D02*
X002461Y006690D01*
X002035Y006312D02*
X001323Y006312D01*
X001206Y006194D02*
X002008Y006194D01*
X001890Y006075D02*
X000490Y006075D01*
X000490Y005957D02*
X001771Y005957D01*
X001617Y005838D02*
X001043Y005838D01*
X001161Y005720D02*
X001499Y005720D01*
X001380Y005601D02*
X001280Y005601D01*
X001290Y005483D02*
X001370Y005483D01*
X001370Y005364D02*
X001290Y005364D01*
X001290Y005246D02*
X001370Y005246D01*
X001452Y005127D02*
X001208Y005127D01*
X000617Y005838D02*
X000490Y005838D01*
X000490Y005720D02*
X000499Y005720D01*
X000490Y006194D02*
X000704Y006194D01*
X000587Y006312D02*
X000490Y006312D01*
X000490Y006431D02*
X000582Y006431D01*
X000912Y006312D02*
X000998Y006312D01*
X000998Y006194D02*
X000912Y006194D01*
X000912Y006668D02*
X000998Y006668D01*
X000998Y006786D02*
X000912Y006786D01*
X000912Y006905D02*
X000998Y006905D01*
X001328Y006431D02*
X001766Y006431D01*
X001949Y006431D02*
X001949Y006431D01*
X001949Y006549D02*
X001949Y006549D01*
D17*
X000955Y007244D02*
X000955Y007650D01*
X000830Y007775D01*
X000830Y008400D01*
X000830Y003650D02*
X000830Y003025D01*
X000955Y002900D01*
X000955Y002494D01*
M02*
