%
M48
M72
T01C0.0140
T02C0.0157
T03C0.0400
%
T01
X1330Y3275
X1580Y2400
X1580Y2025
X2205Y2275
X2580Y1525
X2330Y1025
X3330Y1025
X3955Y1838
X3205Y2275
X3330Y3275
X4080Y2900
X4330Y3275
X5580Y2275
X6330Y3275
X5580Y7025
X6330Y8025
X4330Y8025
X4080Y7650
X3330Y8025
X3205Y7025
X2580Y6150
X2330Y5775
X1580Y6775
X1580Y7150
X2205Y7025
X1330Y8025
X3330Y5775
X3955Y6525
T02
X1143Y4275
X1518Y4275
X1518Y4775
X1143Y4775
X6143Y4775
X6518Y4775
X6518Y4275
X6143Y4275
T03
X830Y3650
X1830Y3650
X2830Y3650
X3830Y3650
X4830Y3650
X5830Y3650
X5830Y5400
X6830Y3650
X6830Y5400
X4830Y5400
X3830Y5400
X2830Y5400
X1830Y5400
X830Y5400
X830Y8400
X1830Y8400
X2830Y8400
X3830Y8400
X4830Y8400
X5830Y8400
X6830Y8400
X6830Y650
X5830Y650
X4830Y650
X3830Y650
X2830Y650
X1830Y650
X830Y650
M30
